<?xml version="1.0" standalone="no"?><svg xmlns:xlink="http://www.w3.org/1999/xlink" xmlns="http://www.w3.org/2000/svg" viewBox="0 0 2000 1250.0094583040127" preserveAspectRatio="xMaxYMax slice"><g transform="scale(1.513328642014543)"><rect x="0" y="0" width="1321.6" height="826" fill="#ffffff"/><rect x="0" y="0" width="82.6" height="82.6" fill="#fff6dd"/><polygon points="82.6,0 82.6,82.6 0,82.6" fill="#4eb4f0"/><rect x="82.6" y="0" width="82.6" height="82.6" fill="#ffd465"/><polygon points="82.6,0 165.2,0 82.6,82.6" fill="#ffd66b"/><rect x="165.2" y="0" width="82.6" height="82.6" fill="#ffffff"/><rect x="165.2" y="0" width="41.3" height="41.3" fill="#66bef2"/><polygon points="165.2,0 206.5,0 206.5,41.3" fill="#ffe192"/><rect x="206.5" y="0" width="41.3" height="41.3" fill="#41aeef"/><polygon points="206.5,0 247.8,41.3 206.5,41.3" fill="#0495e9"/><rect x="165.2" y="41.3" width="41.3" height="41.3" fill="#3fadee"/><polygon points="165.2,41.3 206.5,41.3 165.2,82.6" fill="#8acdf5"/><rect x="206.5" y="41.3" width="41.3" height="41.3" fill="#42afef"/><polygon points="206.5,41.3 247.8,41.3 247.8,82.6" fill="#fff3d3"/><rect x="247.8" y="0" width="82.6" height="82.6" fill="#fff3d4"/><polygon points="247.8,0 330.4,0 330.4,82.6" fill="#ffe7a8"/><rect x="330.4" y="0" width="82.6" height="82.6" fill="#ffffff"/><rect x="330.4" y="0" width="41.3" height="41.3" fill="#ffe5a1"/><polygon points="330.4,0 371.7,0 371.7,41.3" fill="#ffde88"/><rect x="371.7" y="0" width="41.3" height="41.3" fill="#bde3f9"/><polygon points="371.7,0 413,0 413,41.3" fill="#ffcc48"/><rect x="330.4" y="41.3" width="41.3" height="41.3" fill="#b0def8"/><polygon points="330.4,41.3 371.7,82.6 330.4,82.6" fill="#0696ea"/><rect x="371.7" y="41.3" width="41.3" height="41.3" fill="#fffaec"/><polygon points="371.7,41.3 413,82.6 371.7,82.6" fill="#ffdf8d"/><rect x="413" y="0" width="82.6" height="82.6" fill="#ffe08e"/><polygon points="413,0 495.6,82.6 413,82.6" fill="#ffe192"/><rect x="495.6" y="0" width="82.6" height="82.6" fill="#ffe6a4"/><polygon points="495.6,0 578.2,0 495.6,82.6" fill="#ffca3e"/><rect x="578.2" y="0" width="82.6" height="82.6" fill="#ffd15a"/><polygon points="660.8000000000001,0 660.8000000000001,82.6 578.2,82.6" fill="#b5e0f9"/><rect x="660.8" y="0" width="82.6" height="82.6" fill="#ffffff"/><rect x="660.8" y="0" width="41.3" height="41.3" fill="#ffeab3"/><polygon points="660.8,0 702.0999999999999,41.3 660.8,41.3" fill="#74c4f3"/><rect x="702.1" y="0" width="41.3" height="41.3" fill="#ffefc5"/><polygon points="702.1,0 743.4,0 743.4,41.3" fill="#d4edfb"/><rect x="660.8" y="41.3" width="41.3" height="41.3" fill="#fff6de"/><polygon points="660.8,41.3 702.0999999999999,41.3 660.8,82.6" fill="#f3fafe"/><rect x="702.1" y="41.3" width="41.3" height="41.3" fill="#ffe49e"/><polygon points="702.1,41.3 743.4,82.6 702.1,82.6" fill="#fff7e4"/><rect x="743.4" y="0" width="82.6" height="82.6" fill="#ffffff"/><rect x="743.4" y="0" width="41.3" height="41.3" fill="#b4dff8"/><polygon points="743.4,0 784.6999999999999,41.3 743.4,41.3" fill="#fff0c9"/><rect x="784.7" y="0" width="41.3" height="41.3" fill="#4cb3f0"/><polygon points="784.7,0 826,0 784.7,41.3" fill="#20a1ec"/><rect x="743.4" y="41.3" width="41.3" height="41.3" fill="#ffebb7"/><polygon points="743.4,41.3 784.6999999999999,82.6 743.4,82.6" fill="#ffe49f"/><rect x="784.7" y="41.3" width="41.3" height="41.3" fill="#8acdf5"/><polygon points="784.7,41.3 826,41.3 784.7,82.6" fill="#ffebb8"/><rect x="826" y="0" width="82.6" height="82.6" fill="#ffffff"/><rect x="826" y="0" width="41.3" height="41.3" fill="#96d3f6"/><polygon points="826,0 867.3,0 867.3,41.3" fill="#fff0c8"/><rect x="867.3" y="0" width="41.3" height="41.3" fill="#ffcc47"/><polygon points="867.3,0 908.5999999999999,41.3 867.3,41.3" fill="#0f9aea"/><rect x="826" y="41.3" width="41.3" height="41.3" fill="#fff9eb"/><polygon points="826,41.3 867.3,82.6 826,82.6" fill="#2ea7ed"/><rect x="867.3" y="41.3" width="41.3" height="41.3" fill="#50b5f0"/><polygon points="867.3,41.3 908.5999999999999,41.3 908.5999999999999,82.6" fill="#0897ea"/><rect x="908.6" y="0" width="82.6" height="82.6" fill="#abdcf8"/><polygon points="908.6,0 991.2,82.6 908.6,82.6" fill="#ffe9ae"/><rect x="991.1999999999999" y="0" width="82.6" height="82.6" fill="#ffffff"/><rect x="991.2" y="0" width="41.3" height="41.3" fill="#ffefc6"/><polygon points="991.2,0 1032.5,41.3 991.2,41.3" fill="#c0e5fa"/><rect x="1032.5" y="0" width="41.3" height="41.3" fill="#1d9fec"/><polygon points="1032.5,0 1073.8,41.3 1032.5,41.3" fill="#eef8fe"/><rect x="991.2" y="41.3" width="41.3" height="41.3" fill="#def1fc"/><polygon points="991.2,41.3 1032.5,41.3 991.2,82.6" fill="#fff4d7"/><rect x="1032.5" y="41.3" width="41.3" height="41.3" fill="#ffe297"/><polygon points="1032.5,41.3 1073.8,41.3 1073.8,82.6" fill="#ffcd4a"/><rect x="1073.8" y="0" width="82.6" height="82.6" fill="#ffffff"/><rect x="1073.8" y="0" width="41.3" height="41.3" fill="#e0f2fc"/><polygon points="1073.8,0 1115.1,41.3 1073.8,41.3" fill="#80c9f4"/><rect x="1115.1" y="0" width="41.3" height="41.3" fill="#7dc8f4"/><polygon points="1115.1,0 1156.3999999999999,0 1156.3999999999999,41.3" fill="#ffe6a3"/><rect x="1073.8" y="41.3" width="41.3" height="41.3" fill="#f0f8fe"/><polygon points="1115.1,41.3 1115.1,82.6 1073.8,82.6" fill="#cce9fb"/><rect x="1115.1" y="41.3" width="41.3" height="41.3" fill="#42afef"/><polygon points="1115.1,41.3 1156.3999999999999,41.3 1115.1,82.6" fill="#f7fcfe"/><rect x="1156.3999999999999" y="0" width="82.6" height="82.6" fill="#ffffff"/><rect x="1156.4" y="0" width="41.3" height="41.3" fill="#94d2f6"/><polygon points="1156.4,0 1197.7,0 1197.7,41.3" fill="#e0f2fc"/><rect x="1197.7" y="0" width="41.3" height="41.3" fill="#ffdf8a"/><polygon points="1197.7,0 1239,41.3 1197.7,41.3" fill="#fff8e7"/><rect x="1156.4" y="41.3" width="41.3" height="41.3" fill="#ffe7a9"/><polygon points="1156.4,41.3 1197.7,41.3 1197.7,82.6" fill="#34a9ed"/><rect x="1197.7" y="41.3" width="41.3" height="41.3" fill="#fff0ca"/><polygon points="1197.7,41.3 1239,82.6 1197.7,82.6" fill="#ffe49f"/><rect x="1239" y="0" width="82.6" height="82.6" fill="#f6fbfe"/><polygon points="1239,0 1321.6,0 1321.6,82.6" fill="#ffdb7b"/><rect x="0" y="82.6" width="82.6" height="82.6" fill="#fff5da"/><polygon points="0,82.6 82.6,165.2 0,165.2" fill="#b6e0f9"/><rect x="82.6" y="82.6" width="82.6" height="82.6" fill="#ffffff"/><rect x="82.6" y="82.6" width="41.3" height="41.3" fill="#fffaee"/><polygon points="82.6,82.6 123.89999999999999,82.6 123.89999999999999,123.89999999999999" fill="#b6e0f9"/><rect x="123.9" y="82.6" width="41.3" height="41.3" fill="#c6e7fa"/><polygon points="123.9,82.6 165.2,82.6 165.2,123.89999999999999" fill="#edf7fd"/><rect x="82.6" y="123.9" width="41.3" height="41.3" fill="#49b2ef"/><polygon points="82.6,123.9 123.89999999999999,123.9 123.89999999999999,165.2" fill="#24a2ec"/><rect x="123.9" y="123.9" width="41.3" height="41.3" fill="#ffcd49"/><polygon points="123.9,123.9 165.2,123.9 165.2,165.2" fill="#fff8e7"/><rect x="165.2" y="82.6" width="82.6" height="82.6" fill="#ffffff"/><rect x="165.2" y="82.6" width="41.3" height="41.3" fill="#ffeab4"/><polygon points="165.2,82.6 206.5,82.6 206.5,123.89999999999999" fill="#93d1f6"/><rect x="206.5" y="82.6" width="41.3" height="41.3" fill="#fff6dd"/><polygon points="206.5,82.6 247.8,123.89999999999999 206.5,123.89999999999999" fill="#0c98ea"/><rect x="165.2" y="123.9" width="41.3" height="41.3" fill="#68bff2"/><polygon points="165.2,123.9 206.5,123.9 165.2,165.2" fill="#8acef5"/><rect x="206.5" y="123.9" width="41.3" height="41.3" fill="#82caf4"/><polygon points="206.5,123.9 247.8,165.2 206.5,165.2" fill="#ffecbb"/><rect x="247.8" y="82.6" width="82.6" height="82.6" fill="#45b0ef"/><polygon points="247.8,82.6 330.4,82.6 330.4,165.2" fill="#5cbaf1"/><rect x="330.4" y="82.6" width="82.6" height="82.6" fill="#ffe8ad"/><polygon points="330.4,82.6 413,82.6 330.4,165.2" fill="#ffe298"/><rect x="413" y="82.6" width="82.6" height="82.6" fill="#ffffff"/><rect x="413" y="82.6" width="41.3" height="41.3" fill="#ffd464"/><polygon points="413,82.6 454.3,82.6 454.3,123.89999999999999" fill="#ffe9b0"/><rect x="454.3" y="82.6" width="41.3" height="41.3" fill="#fff5d9"/><polygon points="495.6,82.6 495.6,123.89999999999999 454.3,123.89999999999999" fill="#3dadee"/><rect x="413" y="123.9" width="41.3" height="41.3" fill="#7dc8f4"/><polygon points="413,123.9 454.3,123.9 413,165.2" fill="#70c3f3"/><rect x="454.3" y="123.9" width="41.3" height="41.3" fill="#179deb"/><polygon points="454.3,123.9 495.6,165.2 454.3,165.2" fill="#76c5f3"/><rect x="495.59999999999997" y="82.6" width="82.6" height="82.6" fill="#ffffff"/><rect x="495.6" y="82.6" width="41.3" height="41.3" fill="#ffe08d"/><polygon points="495.6,82.6 536.9,82.6 495.6,123.89999999999999" fill="#f5fbfe"/><rect x="536.9" y="82.6" width="41.3" height="41.3" fill="#7bc7f4"/><polygon points="536.9,82.6 578.1999999999999,82.6 578.1999999999999,123.89999999999999" fill="#ffdf8b"/><rect x="495.6" y="123.9" width="41.3" height="41.3" fill="#ffe08e"/><polygon points="495.6,123.9 536.9,165.2 495.6,165.2" fill="#ffecb9"/><rect x="536.9" y="123.9" width="41.3" height="41.3" fill="#ffd872"/><polygon points="536.9,123.9 578.1999999999999,123.9 578.1999999999999,165.2" fill="#0997ea"/><rect x="578.2" y="82.6" width="82.6" height="82.6" fill="#ffda7a"/><polygon points="578.2,82.6 660.8000000000001,165.2 578.2,165.2" fill="#f5fbfe"/><rect x="660.8" y="82.6" width="82.6" height="82.6" fill="#ffe192"/><polygon points="660.8,82.6 743.4,165.2 660.8,165.2" fill="#ffce4d"/><rect x="743.4" y="82.6" width="82.6" height="82.6" fill="#ffe297"/><polygon points="743.4,82.6 826,82.6 826,165.2" fill="#fff6dd"/><rect x="826" y="82.6" width="82.6" height="82.6" fill="#ffd25b"/><polygon points="826,82.6 908.6,82.6 826,165.2" fill="#ffda79"/><rect x="908.6" y="82.6" width="82.6" height="82.6" fill="#ffdc81"/><polygon points="908.6,82.6 991.2,82.6 991.2,165.2" fill="#fff8e5"/><rect x="991.1999999999999" y="82.6" width="82.6" height="82.6" fill="#ffffff"/><rect x="991.2" y="82.6" width="41.3" height="41.3" fill="#ffdc80"/><polygon points="991.2,82.6 1032.5,82.6 991.2,123.89999999999999" fill="#ffd25e"/><rect x="1032.5" y="82.6" width="41.3" height="41.3" fill="#ffe49f"/><polygon points="1032.5,82.6 1073.8,82.6 1073.8,123.89999999999999" fill="#ffcc48"/><rect x="991.2" y="123.9" width="41.3" height="41.3" fill="#ffd25d"/><polygon points="991.2,123.9 1032.5,165.2 991.2,165.2" fill="#ffeab3"/><rect x="1032.5" y="123.9" width="41.3" height="41.3" fill="#c5e6fa"/><polygon points="1032.5,123.9 1073.8,123.9 1032.5,165.2" fill="#ffdc82"/><rect x="1073.8" y="82.6" width="82.6" height="82.6" fill="#cbe9fa"/><polygon points="1156.3999999999999,82.6 1156.3999999999999,165.2 1073.8,165.2" fill="#37aaee"/><rect x="1156.4" y="82.6" width="82.6" height="82.6" fill="#32a8ed"/><polygon points="1156.4,82.6 1239,82.6 1239,165.2" fill="#ffd056"/><rect x="1239" y="82.6" width="82.6" height="82.6" fill="#ffffff"/><rect x="1239" y="82.6" width="41.3" height="41.3" fill="#acdcf8"/><polygon points="1280.3,82.6 1280.3,123.89999999999999 1239,123.89999999999999" fill="#5dbaf1"/><rect x="1280.3" y="82.6" width="41.3" height="41.3" fill="#b8e1f9"/><polygon points="1280.3,82.6 1321.6,123.89999999999999 1280.3,123.89999999999999" fill="#ffe8ab"/><rect x="1239" y="123.9" width="41.3" height="41.3" fill="#139beb"/><polygon points="1239,123.9 1280.3,123.9 1280.3,165.2" fill="#ffce4d"/><rect x="1280.3" y="123.9" width="41.3" height="41.3" fill="#ffeab4"/><polygon points="1280.3,123.9 1321.6,123.9 1280.3,165.2" fill="#feffff"/><rect x="0" y="165.2" width="82.6" height="82.6" fill="#fff5db"/><polygon points="0,165.2 82.6,247.79999999999998 0,247.79999999999998" fill="#f9fdff"/><rect x="82.6" y="165.2" width="82.6" height="82.6" fill="#109aea"/><polygon points="82.6,165.2 165.2,165.2 165.2,247.79999999999998" fill="#fbfdff"/><rect x="165.2" y="165.2" width="82.6" height="82.6" fill="#ffde87"/><polygon points="165.2,165.2 247.79999999999998,247.79999999999998 165.2,247.79999999999998" fill="#b6e0f9"/><rect x="247.8" y="165.2" width="82.6" height="82.6" fill="#ffe39b"/><polygon points="247.8,165.2 330.4,247.79999999999998 247.8,247.79999999999998" fill="#89cdf5"/><rect x="330.4" y="165.2" width="82.6" height="82.6" fill="#ffffff"/><rect x="330.4" y="165.2" width="41.3" height="41.3" fill="#d3ecfb"/><polygon points="330.4,165.2 371.7,165.2 371.7,206.5" fill="#5cbaf1"/><rect x="371.7" y="165.2" width="41.3" height="41.3" fill="#99d4f6"/><polygon points="371.7,165.2 413,206.5 371.7,206.5" fill="#ffdc81"/><rect x="330.4" y="206.5" width="41.3" height="41.3" fill="#fffbf2"/><polygon points="330.4,206.5 371.7,247.8 330.4,247.8" fill="#5cbaf1"/><rect x="371.7" y="206.5" width="41.3" height="41.3" fill="#edf7fd"/><polygon points="371.7,206.5 413,206.5 413,247.8" fill="#ffdc81"/><rect x="413" y="165.2" width="82.6" height="82.6" fill="#ffffff"/><rect x="413" y="165.2" width="41.3" height="41.3" fill="#90d0f5"/><polygon points="454.3,165.2 454.3,206.5 413,206.5" fill="#f0f9fe"/><rect x="454.3" y="165.2" width="41.3" height="41.3" fill="#179deb"/><polygon points="495.6,165.2 495.6,206.5 454.3,206.5" fill="#ffffff"/><rect x="413" y="206.5" width="41.3" height="41.3" fill="#0e99ea"/><polygon points="413,206.5 454.3,206.5 454.3,247.8" fill="#61bcf1"/><rect x="454.3" y="206.5" width="41.3" height="41.3" fill="#149beb"/><polygon points="454.3,206.5 495.6,206.5 454.3,247.8" fill="#bbe2f9"/><rect x="495.6" y="165.2" width="82.6" height="82.6" fill="#e1f2fc"/><polygon points="495.6,165.2 578.2,165.2 578.2,247.79999999999998" fill="#4eb4f0"/><rect x="578.1999999999999" y="165.2" width="82.6" height="82.6" fill="#ffffff"/><rect x="578.2" y="165.2" width="41.3" height="41.3" fill="#0b98ea"/><polygon points="578.2,165.2 619.5,165.2 619.5,206.5" fill="#b8e1f9"/><rect x="619.5" y="165.2" width="41.3" height="41.3" fill="#fff6df"/><polygon points="619.5,165.2 660.8,206.5 619.5,206.5" fill="#ffd870"/><rect x="578.2" y="206.5" width="41.3" height="41.3" fill="#e4f4fd"/><polygon points="578.2,206.5 619.5,206.5 619.5,247.8" fill="#4bb3ef"/><rect x="619.5" y="206.5" width="41.3" height="41.3" fill="#4eb4f0"/><polygon points="619.5,206.5 660.8,206.5 660.8,247.8" fill="#109aea"/><rect x="660.8" y="165.2" width="82.6" height="82.6" fill="#ffffff"/><rect x="660.8" y="165.2" width="41.3" height="41.3" fill="#a2d8f7"/><polygon points="702.0999999999999,165.2 702.0999999999999,206.5 660.8,206.5" fill="#ffd976"/><rect x="702.1" y="165.2" width="41.3" height="41.3" fill="#ffe297"/><polygon points="702.1,165.2 743.4,165.2 743.4,206.5" fill="#79c6f3"/><rect x="660.8" y="206.5" width="41.3" height="41.3" fill="#50b5f0"/><polygon points="660.8,206.5 702.0999999999999,206.5 702.0999999999999,247.8" fill="#fff3d2"/><rect x="702.1" y="206.5" width="41.3" height="41.3" fill="#ffecb9"/><polygon points="702.1,206.5 743.4,206.5 702.1,247.8" fill="#ffdb7e"/><rect x="743.4" y="165.2" width="82.6" height="82.6" fill="#ffedbf"/><polygon points="743.4,165.2 826,247.79999999999998 743.4,247.79999999999998" fill="#fff5d9"/><rect x="826" y="165.2" width="82.6" height="82.6" fill="#ffffff"/><rect x="826" y="165.2" width="41.3" height="41.3" fill="#ffecbb"/><polygon points="826,165.2 867.3,165.2 826,206.5" fill="#ffdd83"/><rect x="867.3" y="165.2" width="41.3" height="41.3" fill="#fff1cd"/><polygon points="867.3,165.2 908.5999999999999,165.2 867.3,206.5" fill="#fff9e8"/><rect x="826" y="206.5" width="41.3" height="41.3" fill="#fff2cf"/><polygon points="826,206.5 867.3,206.5 826,247.8" fill="#1fa0ec"/><rect x="867.3" y="206.5" width="41.3" height="41.3" fill="#b2def8"/><polygon points="867.3,206.5 908.5999999999999,206.5 908.5999999999999,247.8" fill="#ffdd84"/><rect x="908.5999999999999" y="165.2" width="82.6" height="82.6" fill="#ffffff"/><rect x="908.6" y="165.2" width="41.3" height="41.3" fill="#ffce4c"/><polygon points="908.6,165.2 949.9,206.5 908.6,206.5" fill="#ffd360"/><rect x="949.9" y="165.2" width="41.3" height="41.3" fill="#ffdf8a"/><polygon points="949.9,165.2 991.1999999999999,165.2 991.1999999999999,206.5" fill="#ffdd85"/><rect x="908.6" y="206.5" width="41.3" height="41.3" fill="#fff3d5"/><polygon points="949.9,206.5 949.9,247.8 908.6,247.8" fill="#f3fafe"/><rect x="949.9" y="206.5" width="41.3" height="41.3" fill="#26a3ec"/><polygon points="949.9,206.5 991.1999999999999,206.5 949.9,247.8" fill="#63bdf2"/><rect x="991.2" y="165.2" width="82.6" height="82.6" fill="#1c9feb"/><polygon points="991.2,165.2 1073.8,165.2 1073.8,247.79999999999998" fill="#5ab9f1"/><rect x="1073.8" y="165.2" width="82.6" height="82.6" fill="#ffe297"/><polygon points="1156.3999999999999,165.2 1156.3999999999999,247.79999999999998 1073.8,247.79999999999998" fill="#ffefc6"/><rect x="1156.3999999999999" y="165.2" width="82.6" height="82.6" fill="#ffffff"/><rect x="1156.4" y="165.2" width="41.3" height="41.3" fill="#ffd25e"/><polygon points="1197.7,165.2 1197.7,206.5 1156.4,206.5" fill="#ffecba"/><rect x="1197.7" y="165.2" width="41.3" height="41.3" fill="#ffdb7d"/><polygon points="1197.7,165.2 1239,165.2 1197.7,206.5" fill="#ffc93d"/><rect x="1156.4" y="206.5" width="41.3" height="41.3" fill="#ffdc81"/><polygon points="1156.4,206.5 1197.7,247.8 1156.4,247.8" fill="#61bcf1"/><rect x="1197.7" y="206.5" width="41.3" height="41.3" fill="#0394e9"/><polygon points="1239,206.5 1239,247.8 1197.7,247.8" fill="#ffda7a"/><rect x="1239" y="165.2" width="82.6" height="82.6" fill="#ffffff"/><rect x="1239" y="165.2" width="41.3" height="41.3" fill="#e0f2fc"/><polygon points="1239,165.2 1280.3,165.2 1239,206.5" fill="#ffc93e"/><rect x="1280.3" y="165.2" width="41.3" height="41.3" fill="#6cc1f2"/><polygon points="1280.3,165.2 1321.6,165.2 1280.3,206.5" fill="#6cc1f2"/><rect x="1239" y="206.5" width="41.3" height="41.3" fill="#82caf4"/><polygon points="1239,206.5 1280.3,206.5 1280.3,247.8" fill="#fff1ce"/><rect x="1280.3" y="206.5" width="41.3" height="41.3" fill="#fdfeff"/><polygon points="1280.3,206.5 1321.6,206.5 1280.3,247.8" fill="#2fa7ed"/><rect x="0" y="247.8" width="82.6" height="82.6" fill="#e3f3fd"/><polygon points="0,247.8 82.6,247.8 82.6,330.4" fill="#f6fbfe"/><rect x="82.6" y="247.79999999999998" width="82.6" height="82.6" fill="#ffffff"/><rect x="82.6" y="247.8" width="41.3" height="41.3" fill="#fff8e5"/><polygon points="82.6,247.8 123.89999999999999,247.8 82.6,289.1" fill="#ffdb7d"/><rect x="123.9" y="247.8" width="41.3" height="41.3" fill="#7ac7f4"/><polygon points="165.2,247.8 165.2,289.1 123.9,289.1" fill="#95d2f6"/><rect x="82.6" y="289.1" width="41.3" height="41.3" fill="#9cd5f6"/><polygon points="82.6,289.1 123.89999999999999,289.1 82.6,330.40000000000003" fill="#fffcf3"/><rect x="123.9" y="289.1" width="41.3" height="41.3" fill="#ffedbd"/><polygon points="123.9,289.1 165.2,289.1 123.9,330.40000000000003" fill="#86ccf5"/><rect x="165.2" y="247.79999999999998" width="82.6" height="82.6" fill="#ffffff"/><rect x="165.2" y="247.8" width="41.3" height="41.3" fill="#8acdf5"/><polygon points="165.2,247.8 206.5,247.8 206.5,289.1" fill="#ffe8ab"/><rect x="206.5" y="247.8" width="41.3" height="41.3" fill="#fff3d4"/><polygon points="206.5,247.8 247.8,247.8 247.8,289.1" fill="#ffedc0"/><rect x="165.2" y="289.1" width="41.3" height="41.3" fill="#8dcff5"/><polygon points="206.5,289.1 206.5,330.40000000000003 165.2,330.40000000000003" fill="#f3fafe"/><rect x="206.5" y="289.1" width="41.3" height="41.3" fill="#ffe39a"/><polygon points="206.5,289.1 247.8,330.40000000000003 206.5,330.40000000000003" fill="#ffda78"/><rect x="247.79999999999998" y="247.79999999999998" width="82.6" height="82.6" fill="#ffffff"/><rect x="247.8" y="247.8" width="41.3" height="41.3" fill="#b0def8"/><polygon points="247.8,247.8 289.1,247.8 289.1,289.1" fill="#48b1ef"/><rect x="289.1" y="247.8" width="41.3" height="41.3" fill="#39abee"/><polygon points="330.40000000000003,247.8 330.40000000000003,289.1 289.1,289.1" fill="#0394e9"/><rect x="247.8" y="289.1" width="41.3" height="41.3" fill="#ffc93d"/><polygon points="289.1,289.1 289.1,330.40000000000003 247.8,330.40000000000003" fill="#fff5dc"/><rect x="289.1" y="289.1" width="41.3" height="41.3" fill="#ffda7a"/><polygon points="330.40000000000003,289.1 330.40000000000003,330.40000000000003 289.1,330.40000000000003" fill="#a3d8f7"/><rect x="330.4" y="247.8" width="82.6" height="82.6" fill="#48b2ef"/><polygon points="330.4,247.8 413,247.8 330.4,330.4" fill="#fff2d0"/><rect x="413" y="247.8" width="82.6" height="82.6" fill="#3eadee"/><polygon points="413,247.8 495.6,330.4 413,330.4" fill="#c9e8fa"/><rect x="495.6" y="247.8" width="82.6" height="82.6" fill="#ffe08f"/><polygon points="495.6,247.8 578.2,247.8 578.2,330.4" fill="#d5edfb"/><rect x="578.1999999999999" y="247.79999999999998" width="82.6" height="82.6" fill="#ffffff"/><rect x="578.2" y="247.8" width="41.3" height="41.3" fill="#6ec2f2"/><polygon points="578.2,247.8 619.5,247.8 578.2,289.1" fill="#fff2d0"/><rect x="619.5" y="247.8" width="41.3" height="41.3" fill="#ffd76f"/><polygon points="619.5,247.8 660.8,247.8 660.8,289.1" fill="#e8f5fd"/><rect x="578.2" y="289.1" width="41.3" height="41.3" fill="#0595e9"/><polygon points="578.2,289.1 619.5,289.1 619.5,330.40000000000003" fill="#fff3d5"/><rect x="619.5" y="289.1" width="41.3" height="41.3" fill="#139beb"/><polygon points="619.5,289.1 660.8,330.40000000000003 619.5,330.40000000000003" fill="#ffce50"/><rect x="660.8" y="247.79999999999998" width="82.6" height="82.6" fill="#ffffff"/><rect x="660.8" y="247.8" width="41.3" height="41.3" fill="#fff1cc"/><polygon points="660.8,247.8 702.0999999999999,289.1 660.8,289.1" fill="#ffe49e"/><rect x="702.1" y="247.8" width="41.3" height="41.3" fill="#ffca40"/><polygon points="702.1,247.8 743.4,247.8 743.4,289.1" fill="#56b7f0"/><rect x="660.8" y="289.1" width="41.3" height="41.3" fill="#ffe8ab"/><polygon points="702.0999999999999,289.1 702.0999999999999,330.40000000000003 660.8,330.40000000000003" fill="#7dc8f4"/><rect x="702.1" y="289.1" width="41.3" height="41.3" fill="#49b2ef"/><polygon points="702.1,289.1 743.4,330.40000000000003 702.1,330.40000000000003" fill="#b9e1f9"/><rect x="743.4" y="247.79999999999998" width="82.6" height="82.6" fill="#ffffff"/><rect x="743.4" y="247.8" width="41.3" height="41.3" fill="#ffdd86"/><polygon points="784.6999999999999,247.8 784.6999999999999,289.1 743.4,289.1" fill="#42afef"/><rect x="784.7" y="247.8" width="41.3" height="41.3" fill="#ffd974"/><polygon points="784.7,247.8 826,247.8 826,289.1" fill="#39abee"/><rect x="743.4" y="289.1" width="41.3" height="41.3" fill="#fff0c9"/><polygon points="743.4,289.1 784.6999999999999,289.1 743.4,330.40000000000003" fill="#fafdff"/><rect x="784.7" y="289.1" width="41.3" height="41.3" fill="#ffd76f"/><polygon points="784.7,289.1 826,289.1 826,330.40000000000003" fill="#1ea0ec"/><rect x="826" y="247.79999999999998" width="82.6" height="82.6" fill="#ffffff"/><rect x="826" y="247.8" width="41.3" height="41.3" fill="#fff5db"/><polygon points="867.3,247.8 867.3,289.1 826,289.1" fill="#ffd465"/><rect x="867.3" y="247.8" width="41.3" height="41.3" fill="#5cbaf1"/><polygon points="867.3,247.8 908.5999999999999,247.8 867.3,289.1" fill="#179deb"/><rect x="826" y="289.1" width="41.3" height="41.3" fill="#49b2ef"/><polygon points="826,289.1 867.3,330.40000000000003 826,330.40000000000003" fill="#1d9fec"/><rect x="867.3" y="289.1" width="41.3" height="41.3" fill="#ffcc45"/><polygon points="867.3,289.1 908.5999999999999,289.1 908.5999999999999,330.40000000000003" fill="#d9effc"/><rect x="908.6" y="247.8" width="82.6" height="82.6" fill="#e5f4fd"/><polygon points="908.6,247.8 991.2,330.4 908.6,330.4" fill="#71c3f3"/><rect x="991.1999999999999" y="247.79999999999998" width="82.6" height="82.6" fill="#ffffff"/><rect x="991.2" y="247.8" width="41.3" height="41.3" fill="#72c3f3"/><polygon points="1032.5,247.8 1032.5,289.1 991.2,289.1" fill="#e4f4fd"/><rect x="1032.5" y="247.8" width="41.3" height="41.3" fill="#ffd054"/><polygon points="1073.8,247.8 1073.8,289.1 1032.5,289.1" fill="#afddf8"/><rect x="991.2" y="289.1" width="41.3" height="41.3" fill="#63bdf2"/><polygon points="991.2,289.1 1032.5,330.40000000000003 991.2,330.40000000000003" fill="#bce2f9"/><rect x="1032.5" y="289.1" width="41.3" height="41.3" fill="#d9effc"/><polygon points="1032.5,289.1 1073.8,289.1 1073.8,330.40000000000003" fill="#6bc0f2"/><rect x="1073.8" y="247.8" width="82.6" height="82.6" fill="#fff6de"/><polygon points="1073.8,247.8 1156.3999999999999,330.4 1073.8,330.4" fill="#2da6ed"/><rect x="1156.3999999999999" y="247.79999999999998" width="82.6" height="82.6" fill="#ffffff"/><rect x="1156.4" y="247.8" width="41.3" height="41.3" fill="#56b7f0"/><polygon points="1156.4,247.8 1197.7,247.8 1197.7,289.1" fill="#fff6dd"/><rect x="1197.7" y="247.8" width="41.3" height="41.3" fill="#ffecb9"/><polygon points="1197.7,247.8 1239,289.1 1197.7,289.1" fill="#ffcb44"/><rect x="1156.4" y="289.1" width="41.3" height="41.3" fill="#72c3f3"/><polygon points="1156.4,289.1 1197.7,289.1 1156.4,330.40000000000003" fill="#c6e7fa"/><rect x="1197.7" y="289.1" width="41.3" height="41.3" fill="#fff7e1"/><polygon points="1197.7,289.1 1239,330.40000000000003 1197.7,330.40000000000003" fill="#ffd25b"/><rect x="1239" y="247.79999999999998" width="82.6" height="82.6" fill="#ffffff"/><rect x="1239" y="247.8" width="41.3" height="41.3" fill="#ffecb9"/><polygon points="1239,247.8 1280.3,289.1 1239,289.1" fill="#25a3ec"/><rect x="1280.3" y="247.8" width="41.3" height="41.3" fill="#ffd056"/><polygon points="1280.3,247.8 1321.6,289.1 1280.3,289.1" fill="#ffeab5"/><rect x="1239" y="289.1" width="41.3" height="41.3" fill="#ffe295"/><polygon points="1239,289.1 1280.3,330.40000000000003 1239,330.40000000000003" fill="#e3f3fd"/><rect x="1280.3" y="289.1" width="41.3" height="41.3" fill="#7cc8f4"/><polygon points="1280.3,289.1 1321.6,289.1 1280.3,330.40000000000003" fill="#fff4d8"/><rect x="0" y="330.4" width="82.6" height="82.6" fill="#f9fcfe"/><polygon points="82.6,330.4 82.6,413 0,413" fill="#3cacee"/><rect x="82.6" y="330.4" width="82.6" height="82.6" fill="#ffffff"/><rect x="82.6" y="330.4" width="41.3" height="41.3" fill="#ffd056"/><polygon points="123.89999999999999,330.4 123.89999999999999,371.7 82.6,371.7" fill="#ffd15a"/><rect x="123.9" y="330.4" width="41.3" height="41.3" fill="#b5dff9"/><polygon points="123.9,330.4 165.2,330.4 123.9,371.7" fill="#ffeab5"/><rect x="82.6" y="371.7" width="41.3" height="41.3" fill="#f2fafe"/><polygon points="82.6,371.7 123.89999999999999,371.7 123.89999999999999,413" fill="#47b1ef"/><rect x="123.9" y="371.7" width="41.3" height="41.3" fill="#fff9e9"/><polygon points="165.2,371.7 165.2,413 123.9,413" fill="#ffe192"/><rect x="165.2" y="330.4" width="82.6" height="82.6" fill="#c4e6fa"/><polygon points="247.79999999999998,330.4 247.79999999999998,413 165.2,413" fill="#daeffc"/><rect x="247.79999999999998" y="330.4" width="82.6" height="82.6" fill="#ffffff"/><rect x="247.8" y="330.4" width="41.3" height="41.3" fill="#ffdf8b"/><polygon points="247.8,330.4 289.1,330.4 289.1,371.7" fill="#199eeb"/><rect x="289.1" y="330.4" width="41.3" height="41.3" fill="#26a3ec"/><polygon points="289.1,330.4 330.40000000000003,371.7 289.1,371.7" fill="#fefeff"/><rect x="247.8" y="371.7" width="41.3" height="41.3" fill="#ffebb8"/><polygon points="247.8,371.7 289.1,413 247.8,413" fill="#ffebb6"/><rect x="289.1" y="371.7" width="41.3" height="41.3" fill="#e5f4fd"/><polygon points="289.1,371.7 330.40000000000003,371.7 330.40000000000003,413" fill="#ffd874"/><rect x="330.4" y="330.4" width="82.6" height="82.6" fill="#c1e5fa"/><polygon points="330.4,330.4 413,330.4 330.4,413" fill="#ffebb8"/><rect x="413" y="330.4" width="82.6" height="82.6" fill="#ffffff"/><rect x="413" y="330.4" width="41.3" height="41.3" fill="#89cdf5"/><polygon points="413,330.4 454.3,371.7 413,371.7" fill="#79c6f3"/><rect x="454.3" y="330.4" width="41.3" height="41.3" fill="#fff6df"/><polygon points="454.3,330.4 495.6,330.4 454.3,371.7" fill="#ffd873"/><rect x="413" y="371.7" width="41.3" height="41.3" fill="#b1def8"/><polygon points="454.3,371.7 454.3,413 413,413" fill="#50b5f0"/><rect x="454.3" y="371.7" width="41.3" height="41.3" fill="#fff7e2"/><polygon points="454.3,371.7 495.6,371.7 495.6,413" fill="#ffd976"/><rect x="495.59999999999997" y="330.4" width="82.6" height="82.6" fill="#ffffff"/><rect x="495.6" y="330.4" width="41.3" height="41.3" fill="#2fa7ed"/><polygon points="536.9,330.4 536.9,371.7 495.6,371.7" fill="#ffdc82"/><rect x="536.9" y="330.4" width="41.3" height="41.3" fill="#ffda78"/><polygon points="536.9,330.4 578.1999999999999,330.4 578.1999999999999,371.7" fill="#fff9ea"/><rect x="495.6" y="371.7" width="41.3" height="41.3" fill="#ffecbc"/><polygon points="536.9,371.7 536.9,413 495.6,413" fill="#ffd056"/><rect x="536.9" y="371.7" width="41.3" height="41.3" fill="#fff2d1"/><polygon points="578.1999999999999,371.7 578.1999999999999,413 536.9,413" fill="#e2f3fc"/><rect x="578.1999999999999" y="330.4" width="82.6" height="82.6" fill="#ffffff"/><rect x="578.2" y="330.4" width="41.3" height="41.3" fill="#47b1ef"/><polygon points="578.2,330.4 619.5,371.7 578.2,371.7" fill="#90d0f5"/><rect x="619.5" y="330.4" width="41.3" height="41.3" fill="#ffedbc"/><polygon points="619.5,330.4 660.8,371.7 619.5,371.7" fill="#fff0c8"/><rect x="578.2" y="371.7" width="41.3" height="41.3" fill="#ffe5a0"/><polygon points="578.2,371.7 619.5,371.7 578.2,413" fill="#72c3f3"/><rect x="619.5" y="371.7" width="41.3" height="41.3" fill="#0a97ea"/><polygon points="619.5,371.7 660.8,413 619.5,413" fill="#ffe398"/><rect x="660.8" y="330.4" width="82.6" height="82.6" fill="#9cd5f6"/><polygon points="743.4,330.4 743.4,413 660.8,413" fill="#ffda78"/><rect x="743.4" y="330.4" width="82.6" height="82.6" fill="#ffffff"/><rect x="743.4" y="330.4" width="41.3" height="41.3" fill="#139beb"/><polygon points="784.6999999999999,330.4 784.6999999999999,371.7 743.4,371.7" fill="#fff1cc"/><rect x="784.7" y="330.4" width="41.3" height="41.3" fill="#139beb"/><polygon points="784.7,330.4 826,371.7 784.7,371.7" fill="#daeffc"/><rect x="743.4" y="371.7" width="41.3" height="41.3" fill="#1a9eeb"/><polygon points="784.6999999999999,371.7 784.6999999999999,413 743.4,413" fill="#9fd6f7"/><rect x="784.7" y="371.7" width="41.3" height="41.3" fill="#0696ea"/><polygon points="826,371.7 826,413 784.7,413" fill="#fffdf8"/><rect x="826" y="330.4" width="82.6" height="82.6" fill="#ffffff"/><rect x="826" y="330.4" width="41.3" height="41.3" fill="#fffaed"/><polygon points="867.3,330.4 867.3,371.7 826,371.7" fill="#1ea0ec"/><rect x="867.3" y="330.4" width="41.3" height="41.3" fill="#0997ea"/><polygon points="867.3,330.4 908.5999999999999,330.4 867.3,371.7" fill="#2ea6ed"/><rect x="826" y="371.7" width="41.3" height="41.3" fill="#fff1cd"/><polygon points="826,371.7 867.3,371.7 826,413" fill="#ffe296"/><rect x="867.3" y="371.7" width="41.3" height="41.3" fill="#fff0c8"/><polygon points="908.5999999999999,371.7 908.5999999999999,413 867.3,413" fill="#59b9f1"/><rect x="908.6" y="330.4" width="82.6" height="82.6" fill="#a1d7f7"/><polygon points="908.6,330.4 991.2,330.4 908.6,413" fill="#ffe9af"/><rect x="991.1999999999999" y="330.4" width="82.6" height="82.6" fill="#ffffff"/><rect x="991.2" y="330.4" width="41.3" height="41.3" fill="#58b8f1"/><polygon points="991.2,330.4 1032.5,330.4 991.2,371.7" fill="#ffedbd"/><rect x="1032.5" y="330.4" width="41.3" height="41.3" fill="#ffd568"/><polygon points="1032.5,330.4 1073.8,371.7 1032.5,371.7" fill="#fff2d2"/><rect x="991.2" y="371.7" width="41.3" height="41.3" fill="#ffd76e"/><polygon points="991.2,371.7 1032.5,371.7 1032.5,413" fill="#bce3f9"/><rect x="1032.5" y="371.7" width="41.3" height="41.3" fill="#fff9e9"/><polygon points="1073.8,371.7 1073.8,413 1032.5,413" fill="#ffe295"/><rect x="1073.8" y="330.4" width="82.6" height="82.6" fill="#ffd76e"/><polygon points="1073.8,330.4 1156.3999999999999,330.4 1073.8,413" fill="#7ec8f4"/><rect x="1156.3999999999999" y="330.4" width="82.6" height="82.6" fill="#ffffff"/><rect x="1156.4" y="330.4" width="41.3" height="41.3" fill="#ffd25c"/><polygon points="1156.4,330.4 1197.7,330.4 1156.4,371.7" fill="#a1d7f7"/><rect x="1197.7" y="330.4" width="41.3" height="41.3" fill="#36aaee"/><polygon points="1197.7,330.4 1239,330.4 1239,371.7" fill="#9ad4f6"/><rect x="1156.4" y="371.7" width="41.3" height="41.3" fill="#ffdb7d"/><polygon points="1197.7,371.7 1197.7,413 1156.4,413" fill="#ffde87"/><rect x="1197.7" y="371.7" width="41.3" height="41.3" fill="#ffe295"/><polygon points="1197.7,371.7 1239,371.7 1197.7,413" fill="#ffdc81"/><rect x="1239" y="330.4" width="82.6" height="82.6" fill="#ffcc48"/><polygon points="1239,330.4 1321.6,413 1239,413" fill="#ffdb7b"/><rect x="0" y="413" width="82.6" height="82.6" fill="#ffffff"/><rect x="0" y="413" width="41.3" height="41.3" fill="#0b98ea"/><polygon points="0,413 41.3,413 41.3,454.3" fill="#3aacee"/><rect x="41.3" y="413" width="41.3" height="41.3" fill="#ffd976"/><polygon points="82.6,413 82.6,454.3 41.3,454.3" fill="#3faeee"/><rect x="0" y="454.3" width="41.3" height="41.3" fill="#fffcf2"/><polygon points="0,454.3 41.3,454.3 0,495.6" fill="#38abee"/><rect x="41.3" y="454.3" width="41.3" height="41.3" fill="#ffd873"/><polygon points="41.3,454.3 82.6,495.6 41.3,495.6" fill="#def1fc"/><rect x="82.6" y="413" width="82.6" height="82.6" fill="#5ebbf1"/><polygon points="82.6,413 165.2,413 82.6,495.6" fill="#1c9feb"/><rect x="165.2" y="413" width="82.6" height="82.6" fill="#ffffff"/><rect x="165.2" y="413" width="41.3" height="41.3" fill="#ffe192"/><polygon points="165.2,413 206.5,413 165.2,454.3" fill="#ffd056"/><rect x="206.5" y="413" width="41.3" height="41.3" fill="#94d2f6"/><polygon points="247.8,413 247.8,454.3 206.5,454.3" fill="#97d3f6"/><rect x="165.2" y="454.3" width="41.3" height="41.3" fill="#ffcc46"/><polygon points="165.2,454.3 206.5,454.3 165.2,495.6" fill="#fff1ce"/><rect x="206.5" y="454.3" width="41.3" height="41.3" fill="#51b5f0"/><polygon points="247.8,454.3 247.8,495.6 206.5,495.6" fill="#ffefc4"/><rect x="247.8" y="413" width="82.6" height="82.6" fill="#e6f4fd"/><polygon points="330.4,413 330.4,495.6 247.8,495.6" fill="#f6fbfe"/><rect x="330.4" y="413" width="82.6" height="82.6" fill="#ffffff"/><rect x="330.4" y="413" width="41.3" height="41.3" fill="#fff2cf"/><polygon points="330.4,413 371.7,413 330.4,454.3" fill="#4db3f0"/><rect x="371.7" y="413" width="41.3" height="41.3" fill="#ffce4d"/><polygon points="371.7,413 413,413 371.7,454.3" fill="#ffda7a"/><rect x="330.4" y="454.3" width="41.3" height="41.3" fill="#7cc8f4"/><polygon points="330.4,454.3 371.7,454.3 371.7,495.6" fill="#ffe7aa"/><rect x="371.7" y="454.3" width="41.3" height="41.3" fill="#cfebfb"/><polygon points="371.7,454.3 413,454.3 371.7,495.6" fill="#ffdd84"/><rect x="413" y="413" width="82.6" height="82.6" fill="#ffffff"/><rect x="413" y="413" width="41.3" height="41.3" fill="#ffca3f"/><polygon points="413,413 454.3,454.3 413,454.3" fill="#fffcf4"/><rect x="454.3" y="413" width="41.3" height="41.3" fill="#1b9feb"/><polygon points="454.3,413 495.6,454.3 454.3,454.3" fill="#fff6e0"/><rect x="413" y="454.3" width="41.3" height="41.3" fill="#ffd978"/><polygon points="454.3,454.3 454.3,495.6 413,495.6" fill="#55b7f0"/><rect x="454.3" y="454.3" width="41.3" height="41.3" fill="#ffebb8"/><polygon points="454.3,454.3 495.6,495.6 454.3,495.6" fill="#b6e0f9"/><rect x="495.6" y="413" width="82.6" height="82.6" fill="#ffdb7e"/><polygon points="495.6,413 578.2,413 578.2,495.6" fill="#ffd66a"/><rect x="578.2" y="413" width="82.6" height="82.6" fill="#7dc8f4"/><polygon points="578.2,413 660.8000000000001,495.6 578.2,495.6" fill="#ffda78"/><rect x="660.8" y="413" width="82.6" height="82.6" fill="#ffffff"/><rect x="660.8" y="413" width="41.3" height="41.3" fill="#ffeab4"/><polygon points="660.8,413 702.0999999999999,413 660.8,454.3" fill="#9ad4f6"/><rect x="702.1" y="413" width="41.3" height="41.3" fill="#e5f4fd"/><polygon points="702.1,413 743.4,413 743.4,454.3" fill="#78c6f3"/><rect x="660.8" y="454.3" width="41.3" height="41.3" fill="#1ea0ec"/><polygon points="660.8,454.3 702.0999999999999,454.3 702.0999999999999,495.6" fill="#72c3f3"/><rect x="702.1" y="454.3" width="41.3" height="41.3" fill="#6cc1f2"/><polygon points="743.4,454.3 743.4,495.6 702.1,495.6" fill="#fffcf3"/><rect x="743.4" y="413" width="82.6" height="82.6" fill="#ffffff"/><rect x="743.4" y="413" width="41.3" height="41.3" fill="#ffdd85"/><polygon points="743.4,413 784.6999999999999,454.3 743.4,454.3" fill="#ffd25c"/><rect x="784.7" y="413" width="41.3" height="41.3" fill="#aadbf8"/><polygon points="784.7,413 826,413 784.7,454.3" fill="#ffce4d"/><rect x="743.4" y="454.3" width="41.3" height="41.3" fill="#ebf6fd"/><polygon points="743.4,454.3 784.6999999999999,454.3 743.4,495.6" fill="#ffcd49"/><rect x="784.7" y="454.3" width="41.3" height="41.3" fill="#74c4f3"/><polygon points="784.7,454.3 826,495.6 784.7,495.6" fill="#ffeab3"/><rect x="826" y="413" width="82.6" height="82.6" fill="#ffffff"/><rect x="826" y="413" width="41.3" height="41.3" fill="#ffcd4b"/><polygon points="867.3,413 867.3,454.3 826,454.3" fill="#ffd770"/><rect x="867.3" y="413" width="41.3" height="41.3" fill="#24a2ec"/><polygon points="867.3,413 908.5999999999999,413 908.5999999999999,454.3" fill="#cae9fa"/><rect x="826" y="454.3" width="41.3" height="41.3" fill="#cbe9fb"/><polygon points="867.3,454.3 867.3,495.6 826,495.6" fill="#74c4f3"/><rect x="867.3" y="454.3" width="41.3" height="41.3" fill="#ffe49d"/><polygon points="867.3,454.3 908.5999999999999,454.3 867.3,495.6" fill="#fff0c8"/><rect x="908.5999999999999" y="413" width="82.6" height="82.6" fill="#ffffff"/><rect x="908.6" y="413" width="41.3" height="41.3" fill="#ffce4d"/><polygon points="908.6,413 949.9,454.3 908.6,454.3" fill="#def1fc"/><rect x="949.9" y="413" width="41.3" height="41.3" fill="#5cbaf1"/><polygon points="991.1999999999999,413 991.1999999999999,454.3 949.9,454.3" fill="#ffe39a"/><rect x="908.6" y="454.3" width="41.3" height="41.3" fill="#fffbf1"/><polygon points="949.9,454.3 949.9,495.6 908.6,495.6" fill="#ffd567"/><rect x="949.9" y="454.3" width="41.3" height="41.3" fill="#cae9fa"/><polygon points="949.9,454.3 991.1999999999999,454.3 949.9,495.6" fill="#e0f2fc"/><rect x="991.1999999999999" y="413" width="82.6" height="82.6" fill="#ffffff"/><rect x="991.2" y="413" width="41.3" height="41.3" fill="#fffbf2"/><polygon points="991.2,413 1032.5,454.3 991.2,454.3" fill="#ffd568"/><rect x="1032.5" y="413" width="41.3" height="41.3" fill="#86ccf5"/><polygon points="1073.8,413 1073.8,454.3 1032.5,454.3" fill="#67bef2"/><rect x="991.2" y="454.3" width="41.3" height="41.3" fill="#ffecb9"/><polygon points="991.2,454.3 1032.5,495.6 991.2,495.6" fill="#86ccf5"/><rect x="1032.5" y="454.3" width="41.3" height="41.3" fill="#ffca40"/><polygon points="1032.5,454.3 1073.8,495.6 1032.5,495.6" fill="#ffe191"/><rect x="1073.8" y="413" width="82.6" height="82.6" fill="#ffffff"/><rect x="1073.8" y="413" width="41.3" height="41.3" fill="#ffcb43"/><polygon points="1073.8,413 1115.1,413 1073.8,454.3" fill="#1d9feb"/><rect x="1115.1" y="413" width="41.3" height="41.3" fill="#def1fc"/><polygon points="1115.1,413 1156.3999999999999,454.3 1115.1,454.3" fill="#0595e9"/><rect x="1073.8" y="454.3" width="41.3" height="41.3" fill="#f5fbfe"/><polygon points="1073.8,454.3 1115.1,495.6 1073.8,495.6" fill="#1d9feb"/><rect x="1115.1" y="454.3" width="41.3" height="41.3" fill="#ffefc6"/><polygon points="1156.3999999999999,454.3 1156.3999999999999,495.6 1115.1,495.6" fill="#ffdb7d"/><rect x="1156.4" y="413" width="82.6" height="82.6" fill="#ffeab2"/><polygon points="1156.4,413 1239,413 1156.4,495.6" fill="#ffebb7"/><rect x="1239" y="413" width="82.6" height="82.6" fill="#24a2ec"/><polygon points="1239,413 1321.6,413 1321.6,495.6" fill="#ffecbc"/><rect x="0" y="495.59999999999997" width="82.6" height="82.6" fill="#ffffff"/><rect x="0" y="495.6" width="41.3" height="41.3" fill="#ffd66a"/><polygon points="0,495.6 41.3,495.6 41.3,536.9" fill="#ecf7fd"/><rect x="41.3" y="495.6" width="41.3" height="41.3" fill="#fff5dc"/><polygon points="41.3,495.6 82.6,536.9 41.3,536.9" fill="#76c5f3"/><rect x="0" y="536.9" width="41.3" height="41.3" fill="#b7e1f9"/><polygon points="0,536.9 41.3,536.9 41.3,578.1999999999999" fill="#ffd872"/><rect x="41.3" y="536.9" width="41.3" height="41.3" fill="#119aea"/><polygon points="41.3,536.9 82.6,536.9 41.3,578.1999999999999" fill="#ffd464"/><rect x="82.6" y="495.59999999999997" width="82.6" height="82.6" fill="#ffffff"/><rect x="82.6" y="495.6" width="41.3" height="41.3" fill="#9bd5f6"/><polygon points="123.89999999999999,495.6 123.89999999999999,536.9 82.6,536.9" fill="#9ed6f7"/><rect x="123.9" y="495.6" width="41.3" height="41.3" fill="#ffe5a0"/><polygon points="123.9,495.6 165.2,495.6 123.9,536.9" fill="#fff7e1"/><rect x="82.6" y="536.9" width="41.3" height="41.3" fill="#3eadee"/><polygon points="123.89999999999999,536.9 123.89999999999999,578.1999999999999 82.6,578.1999999999999" fill="#fffefd"/><rect x="123.9" y="536.9" width="41.3" height="41.3" fill="#ffe49c"/><polygon points="165.2,536.9 165.2,578.1999999999999 123.9,578.1999999999999" fill="#ffcf52"/><rect x="165.2" y="495.6" width="82.6" height="82.6" fill="#a1d7f7"/><polygon points="165.2,495.6 247.79999999999998,495.6 247.79999999999998,578.2" fill="#a8daf8"/><rect x="247.8" y="495.6" width="82.6" height="82.6" fill="#ffdf8c"/><polygon points="330.4,495.6 330.4,578.2 247.8,578.2" fill="#ffdb7e"/><rect x="330.4" y="495.6" width="82.6" height="82.6" fill="#66bef2"/><polygon points="330.4,495.6 413,578.2 330.4,578.2" fill="#ffeab4"/><rect x="413" y="495.59999999999997" width="82.6" height="82.6" fill="#ffffff"/><rect x="413" y="495.6" width="41.3" height="41.3" fill="#fffcf3"/><polygon points="413,495.6 454.3,495.6 413,536.9" fill="#2ba5ed"/><rect x="454.3" y="495.6" width="41.3" height="41.3" fill="#21a1ec"/><polygon points="454.3,495.6 495.6,495.6 495.6,536.9" fill="#0c98ea"/><rect x="413" y="536.9" width="41.3" height="41.3" fill="#bde3f9"/><polygon points="454.3,536.9 454.3,578.1999999999999 413,578.1999999999999" fill="#fff9e9"/><rect x="454.3" y="536.9" width="41.3" height="41.3" fill="#ffd66b"/><polygon points="454.3,536.9 495.6,578.1999999999999 454.3,578.1999999999999" fill="#ffc93d"/><rect x="495.59999999999997" y="495.59999999999997" width="82.6" height="82.6" fill="#ffffff"/><rect x="495.6" y="495.6" width="41.3" height="41.3" fill="#ffcd4a"/><polygon points="495.6,495.6 536.9,495.6 536.9,536.9" fill="#ffcb42"/><rect x="536.9" y="495.6" width="41.3" height="41.3" fill="#ffdf8b"/><polygon points="536.9,495.6 578.1999999999999,495.6 578.1999999999999,536.9" fill="#bfe4f9"/><rect x="495.6" y="536.9" width="41.3" height="41.3" fill="#dcf0fc"/><polygon points="495.6,536.9 536.9,536.9 495.6,578.1999999999999" fill="#ffeab4"/><rect x="536.9" y="536.9" width="41.3" height="41.3" fill="#ffd76d"/><polygon points="578.1999999999999,536.9 578.1999999999999,578.1999999999999 536.9,578.1999999999999" fill="#ffd35f"/><rect x="578.1999999999999" y="495.59999999999997" width="82.6" height="82.6" fill="#ffffff"/><rect x="578.2" y="495.6" width="41.3" height="41.3" fill="#a6d9f7"/><polygon points="578.2,495.6 619.5,495.6 619.5,536.9" fill="#a3d8f7"/><rect x="619.5" y="495.6" width="41.3" height="41.3" fill="#edf7fd"/><polygon points="619.5,495.6 660.8,495.6 619.5,536.9" fill="#3aacee"/><rect x="578.2" y="536.9" width="41.3" height="41.3" fill="#82caf4"/><polygon points="619.5,536.9 619.5,578.1999999999999 578.2,578.1999999999999" fill="#ffd158"/><rect x="619.5" y="536.9" width="41.3" height="41.3" fill="#ffdf8b"/><polygon points="619.5,536.9 660.8,536.9 660.8,578.1999999999999" fill="#54b7f0"/><rect x="660.8" y="495.6" width="82.6" height="82.6" fill="#73c4f3"/><polygon points="743.4,495.6 743.4,578.2 660.8,578.2" fill="#ffd463"/><rect x="743.4" y="495.6" width="82.6" height="82.6" fill="#bce3f9"/><polygon points="743.4,495.6 826,495.6 826,578.2" fill="#80c9f4"/><rect x="826" y="495.59999999999997" width="82.6" height="82.6" fill="#ffffff"/><rect x="826" y="495.6" width="41.3" height="41.3" fill="#2fa7ed"/><polygon points="826,495.6 867.3,495.6 826,536.9" fill="#81caf4"/><rect x="867.3" y="495.6" width="41.3" height="41.3" fill="#b1def8"/><polygon points="867.3,495.6 908.5999999999999,495.6 867.3,536.9" fill="#0f99ea"/><rect x="826" y="536.9" width="41.3" height="41.3" fill="#ffcd4a"/><polygon points="826,536.9 867.3,536.9 826,578.1999999999999" fill="#ffe5a2"/><rect x="867.3" y="536.9" width="41.3" height="41.3" fill="#ffe9ae"/><polygon points="867.3,536.9 908.5999999999999,578.1999999999999 867.3,578.1999999999999" fill="#ffda7a"/><rect x="908.5999999999999" y="495.59999999999997" width="82.6" height="82.6" fill="#ffffff"/><rect x="908.6" y="495.6" width="41.3" height="41.3" fill="#ffe297"/><polygon points="908.6,495.6 949.9,536.9 908.6,536.9" fill="#ffe7a7"/><rect x="949.9" y="495.6" width="41.3" height="41.3" fill="#7dc8f4"/><polygon points="949.9,495.6 991.1999999999999,495.6 949.9,536.9" fill="#ffe7aa"/><rect x="908.6" y="536.9" width="41.3" height="41.3" fill="#67bff2"/><polygon points="949.9,536.9 949.9,578.1999999999999 908.6,578.1999999999999" fill="#fff7e2"/><rect x="949.9" y="536.9" width="41.3" height="41.3" fill="#ffd873"/><polygon points="949.9,536.9 991.1999999999999,536.9 991.1999999999999,578.1999999999999" fill="#95d2f6"/><rect x="991.2" y="495.6" width="82.6" height="82.6" fill="#fff6de"/><polygon points="991.2,495.6 1073.8,495.6 1073.8,578.2" fill="#ffdd86"/><rect x="1073.8" y="495.6" width="82.6" height="82.6" fill="#ffffff"/><polygon points="1156.3999999999999,495.6 1156.3999999999999,578.2 1073.8,578.2" fill="#4cb3f0"/><rect x="1156.3999999999999" y="495.59999999999997" width="82.6" height="82.6" fill="#ffffff"/><rect x="1156.4" y="495.6" width="41.3" height="41.3" fill="#ffe9b0"/><polygon points="1197.7,495.6 1197.7,536.9 1156.4,536.9" fill="#31a8ed"/><rect x="1197.7" y="495.6" width="41.3" height="41.3" fill="#ffe39a"/><polygon points="1197.7,495.6 1239,536.9 1197.7,536.9" fill="#0896ea"/><rect x="1156.4" y="536.9" width="41.3" height="41.3" fill="#fff3d5"/><polygon points="1156.4,536.9 1197.7,536.9 1197.7,578.1999999999999" fill="#fffbf2"/><rect x="1197.7" y="536.9" width="41.3" height="41.3" fill="#ffca3e"/><polygon points="1197.7,536.9 1239,578.1999999999999 1197.7,578.1999999999999" fill="#fffaeb"/><rect x="1239" y="495.59999999999997" width="82.6" height="82.6" fill="#ffffff"/><rect x="1239" y="495.6" width="41.3" height="41.3" fill="#ffeec1"/><polygon points="1280.3,495.6 1280.3,536.9 1239,536.9" fill="#139beb"/><rect x="1280.3" y="495.6" width="41.3" height="41.3" fill="#fff5db"/><polygon points="1280.3,495.6 1321.6,495.6 1321.6,536.9" fill="#9ed6f7"/><rect x="1239" y="536.9" width="41.3" height="41.3" fill="#37aaee"/><polygon points="1280.3,536.9 1280.3,578.1999999999999 1239,578.1999999999999" fill="#85cbf4"/><rect x="1280.3" y="536.9" width="41.3" height="41.3" fill="#ffca3e"/><polygon points="1321.6,536.9 1321.6,578.1999999999999 1280.3,578.1999999999999" fill="#129beb"/><rect x="0" y="578.1999999999999" width="82.6" height="82.6" fill="#ffffff"/><rect x="0" y="578.2" width="41.3" height="41.3" fill="#ffda79"/><polygon points="0,578.2 41.3,619.5 0,619.5" fill="#ffe6a5"/><rect x="41.3" y="578.2" width="41.3" height="41.3" fill="#0394e9"/><polygon points="82.6,578.2 82.6,619.5 41.3,619.5" fill="#ecf7fd"/><rect x="0" y="619.5" width="41.3" height="41.3" fill="#33a9ed"/><polygon points="41.3,619.5 41.3,660.8 0,660.8" fill="#ffe194"/><rect x="41.3" y="619.5" width="41.3" height="41.3" fill="#86ccf5"/><polygon points="82.6,619.5 82.6,660.8 41.3,660.8" fill="#fff7e3"/><rect x="82.6" y="578.1999999999999" width="82.6" height="82.6" fill="#ffffff"/><rect x="82.6" y="578.2" width="41.3" height="41.3" fill="#ffdb7c"/><polygon points="82.6,578.2 123.89999999999999,619.5 82.6,619.5" fill="#ffeab2"/><rect x="123.9" y="578.2" width="41.3" height="41.3" fill="#fff9eb"/><polygon points="165.2,578.2 165.2,619.5 123.9,619.5" fill="#ffcf52"/><rect x="82.6" y="619.5" width="41.3" height="41.3" fill="#eef8fe"/><polygon points="123.89999999999999,619.5 123.89999999999999,660.8 82.6,660.8" fill="#43afef"/><rect x="123.9" y="619.5" width="41.3" height="41.3" fill="#41aeef"/><polygon points="123.9,619.5 165.2,619.5 165.2,660.8" fill="#fffffe"/><rect x="165.2" y="578.1999999999999" width="82.6" height="82.6" fill="#ffffff"/><rect x="165.2" y="578.2" width="41.3" height="41.3" fill="#d9effc"/><polygon points="165.2,578.2 206.5,619.5 165.2,619.5" fill="#ffe191"/><rect x="206.5" y="578.2" width="41.3" height="41.3" fill="#ffce4e"/><polygon points="206.5,578.2 247.8,619.5 206.5,619.5" fill="#75c4f3"/><rect x="165.2" y="619.5" width="41.3" height="41.3" fill="#ffeec1"/><polygon points="165.2,619.5 206.5,619.5 206.5,660.8" fill="#6fc2f3"/><rect x="206.5" y="619.5" width="41.3" height="41.3" fill="#fff3d4"/><polygon points="206.5,619.5 247.8,660.8 206.5,660.8" fill="#ffd975"/><rect x="247.8" y="578.2" width="82.6" height="82.6" fill="#0394e9"/><polygon points="247.8,578.2 330.4,578.2 330.4,660.8000000000001" fill="#c3e6fa"/><rect x="330.4" y="578.2" width="82.6" height="82.6" fill="#ebf7fd"/><polygon points="413,578.2 413,660.8000000000001 330.4,660.8000000000001" fill="#fff6df"/><rect x="413" y="578.2" width="82.6" height="82.6" fill="#fafdff"/><polygon points="413,578.2 495.6,660.8000000000001 413,660.8000000000001" fill="#4eb4f0"/><rect x="495.59999999999997" y="578.1999999999999" width="82.6" height="82.6" fill="#ffffff"/><rect x="495.6" y="578.2" width="41.3" height="41.3" fill="#ffd76d"/><polygon points="536.9,578.2 536.9,619.5 495.6,619.5" fill="#ffe9b0"/><rect x="536.9" y="578.2" width="41.3" height="41.3" fill="#1fa0ec"/><polygon points="536.9,578.2 578.1999999999999,619.5 536.9,619.5" fill="#ffda7a"/><rect x="495.6" y="619.5" width="41.3" height="41.3" fill="#fff8e5"/><polygon points="495.6,619.5 536.9,660.8 495.6,660.8" fill="#0d99ea"/><rect x="536.9" y="619.5" width="41.3" height="41.3" fill="#6ac0f2"/><polygon points="578.1999999999999,619.5 578.1999999999999,660.8 536.9,660.8" fill="#d3ecfb"/><rect x="578.1999999999999" y="578.1999999999999" width="82.6" height="82.6" fill="#ffffff"/><rect x="578.2" y="578.2" width="41.3" height="41.3" fill="#129beb"/><polygon points="578.2,578.2 619.5,578.2 578.2,619.5" fill="#99d4f6"/><rect x="619.5" y="578.2" width="41.3" height="41.3" fill="#a9dbf8"/><polygon points="660.8,578.2 660.8,619.5 619.5,619.5" fill="#eff8fe"/><rect x="578.2" y="619.5" width="41.3" height="41.3" fill="#ffd35f"/><polygon points="578.2,619.5 619.5,660.8 578.2,660.8" fill="#ffd76d"/><rect x="619.5" y="619.5" width="41.3" height="41.3" fill="#64bdf2"/><polygon points="619.5,619.5 660.8,619.5 660.8,660.8" fill="#ffd054"/><rect x="660.8" y="578.1999999999999" width="82.6" height="82.6" fill="#ffffff"/><rect x="660.8" y="578.2" width="41.3" height="41.3" fill="#6ec1f2"/><polygon points="702.0999999999999,578.2 702.0999999999999,619.5 660.8,619.5" fill="#ffe398"/><rect x="702.1" y="578.2" width="41.3" height="41.3" fill="#fff6de"/><polygon points="702.1,578.2 743.4,619.5 702.1,619.5" fill="#ffe090"/><rect x="660.8" y="619.5" width="41.3" height="41.3" fill="#0294e9"/><polygon points="660.8,619.5 702.0999999999999,619.5 660.8,660.8" fill="#fafdff"/><rect x="702.1" y="619.5" width="41.3" height="41.3" fill="#ffcd4c"/><polygon points="702.1,619.5 743.4,660.8 702.1,660.8" fill="#75c5f3"/><rect x="743.4" y="578.1999999999999" width="82.6" height="82.6" fill="#ffffff"/><rect x="743.4" y="578.2" width="41.3" height="41.3" fill="#8ecff5"/><polygon points="743.4,578.2 784.6999999999999,619.5 743.4,619.5" fill="#ffca3e"/><rect x="784.7" y="578.2" width="41.3" height="41.3" fill="#93d1f6"/><polygon points="826,578.2 826,619.5 784.7,619.5" fill="#ffd977"/><rect x="743.4" y="619.5" width="41.3" height="41.3" fill="#f2f9fe"/><polygon points="784.6999999999999,619.5 784.6999999999999,660.8 743.4,660.8" fill="#ffe8ad"/><rect x="784.7" y="619.5" width="41.3" height="41.3" fill="#ffd873"/><polygon points="826,619.5 826,660.8 784.7,660.8" fill="#8ecff5"/><rect x="826" y="578.1999999999999" width="82.6" height="82.6" fill="#ffffff"/><rect x="826" y="578.2" width="41.3" height="41.3" fill="#159ceb"/><polygon points="826,578.2 867.3,578.2 867.3,619.5" fill="#ffe39a"/><rect x="867.3" y="578.2" width="41.3" height="41.3" fill="#ffd462"/><polygon points="908.5999999999999,578.2 908.5999999999999,619.5 867.3,619.5" fill="#ffdf8c"/><rect x="826" y="619.5" width="41.3" height="41.3" fill="#7dc8f4"/><polygon points="826,619.5 867.3,619.5 867.3,660.8" fill="#85cbf4"/><rect x="867.3" y="619.5" width="41.3" height="41.3" fill="#def1fc"/><polygon points="908.5999999999999,619.5 908.5999999999999,660.8 867.3,660.8" fill="#fff3d4"/><rect x="908.5999999999999" y="578.1999999999999" width="82.6" height="82.6" fill="#ffffff"/><rect x="908.6" y="578.2" width="41.3" height="41.3" fill="#c2e5fa"/><polygon points="949.9,578.2 949.9,619.5 908.6,619.5" fill="#f6fbfe"/><rect x="949.9" y="578.2" width="41.3" height="41.3" fill="#3bacee"/><polygon points="949.9,578.2 991.1999999999999,578.2 949.9,619.5" fill="#fff6de"/><rect x="908.6" y="619.5" width="41.3" height="41.3" fill="#ffe9af"/><polygon points="949.9,619.5 949.9,660.8 908.6,660.8" fill="#ffe193"/><rect x="949.9" y="619.5" width="41.3" height="41.3" fill="#ffcc46"/><polygon points="949.9,619.5 991.1999999999999,619.5 949.9,660.8" fill="#def1fc"/><rect x="991.2" y="578.2" width="82.6" height="82.6" fill="#fffdf8"/><polygon points="991.2,578.2 1073.8,578.2 1073.8,660.8000000000001" fill="#ffd25c"/><rect x="1073.8" y="578.1999999999999" width="82.6" height="82.6" fill="#ffffff"/><rect x="1073.8" y="578.2" width="41.3" height="41.3" fill="#fff5db"/><polygon points="1073.8,578.2 1115.1,578.2 1115.1,619.5" fill="#189deb"/><rect x="1115.1" y="578.2" width="41.3" height="41.3" fill="#ffeec3"/><polygon points="1115.1,578.2 1156.3999999999999,619.5 1115.1,619.5" fill="#129beb"/><rect x="1073.8" y="619.5" width="41.3" height="41.3" fill="#ffda78"/><polygon points="1115.1,619.5 1115.1,660.8 1073.8,660.8" fill="#c7e7fa"/><rect x="1115.1" y="619.5" width="41.3" height="41.3" fill="#96d2f6"/><polygon points="1115.1,619.5 1156.3999999999999,619.5 1115.1,660.8" fill="#fffbf0"/><rect x="1156.3999999999999" y="578.1999999999999" width="82.6" height="82.6" fill="#ffffff"/><rect x="1156.4" y="578.2" width="41.3" height="41.3" fill="#ffca41"/><polygon points="1156.4,578.2 1197.7,619.5 1156.4,619.5" fill="#ffce4f"/><rect x="1197.7" y="578.2" width="41.3" height="41.3" fill="#ffd25c"/><polygon points="1197.7,578.2 1239,578.2 1239,619.5" fill="#119aea"/><rect x="1156.4" y="619.5" width="41.3" height="41.3" fill="#0b98ea"/><polygon points="1197.7,619.5 1197.7,660.8 1156.4,660.8" fill="#73c4f3"/><rect x="1197.7" y="619.5" width="41.3" height="41.3" fill="#fff4d6"/><polygon points="1197.7,619.5 1239,619.5 1239,660.8" fill="#b0ddf8"/><rect x="1239" y="578.2" width="82.6" height="82.6" fill="#83caf4"/><polygon points="1239,578.2 1321.6,578.2 1321.6,660.8000000000001" fill="#ffd669"/><rect x="0" y="660.8" width="82.6" height="82.6" fill="#2da6ed"/><polygon points="0,660.8 82.6,743.4 0,743.4" fill="#ffde88"/><rect x="82.6" y="660.8" width="82.6" height="82.6" fill="#f6fbfe"/><polygon points="82.6,660.8 165.2,660.8 165.2,743.4" fill="#ffecba"/><rect x="165.2" y="660.8" width="82.6" height="82.6" fill="#ffffff"/><rect x="165.2" y="660.8" width="41.3" height="41.3" fill="#8dcff5"/><polygon points="165.2,660.8 206.5,702.0999999999999 165.2,702.0999999999999" fill="#ffd25e"/><rect x="206.5" y="660.8" width="41.3" height="41.3" fill="#8fd0f5"/><polygon points="206.5,660.8 247.8,702.0999999999999 206.5,702.0999999999999" fill="#fffcf4"/><rect x="165.2" y="702.1" width="41.3" height="41.3" fill="#b8e1f9"/><polygon points="165.2,702.1 206.5,743.4 165.2,743.4" fill="#ffd463"/><rect x="206.5" y="702.1" width="41.3" height="41.3" fill="#ffd25e"/><polygon points="247.8,702.1 247.8,743.4 206.5,743.4" fill="#fffaed"/><rect x="247.79999999999998" y="660.8" width="82.6" height="82.6" fill="#ffffff"/><rect x="247.8" y="660.8" width="41.3" height="41.3" fill="#b9e1f9"/><polygon points="247.8,660.8 289.1,702.0999999999999 247.8,702.0999999999999" fill="#33a8ed"/><rect x="289.1" y="660.8" width="41.3" height="41.3" fill="#ffe298"/><polygon points="289.1,660.8 330.40000000000003,660.8 289.1,702.0999999999999" fill="#70c3f3"/><rect x="247.8" y="702.1" width="41.3" height="41.3" fill="#fff3d5"/><polygon points="289.1,702.1 289.1,743.4 247.8,743.4" fill="#b3dff8"/><rect x="289.1" y="702.1" width="41.3" height="41.3" fill="#bce3f9"/><polygon points="289.1,702.1 330.40000000000003,743.4 289.1,743.4" fill="#ffdb7c"/><rect x="330.4" y="660.8" width="82.6" height="82.6" fill="#ffffff"/><rect x="330.4" y="660.8" width="41.3" height="41.3" fill="#ffedbe"/><polygon points="330.4,660.8 371.7,660.8 330.4,702.0999999999999" fill="#ffd76f"/><rect x="371.7" y="660.8" width="41.3" height="41.3" fill="#40aeef"/><polygon points="371.7,660.8 413,660.8 413,702.0999999999999" fill="#ffe8ab"/><rect x="330.4" y="702.1" width="41.3" height="41.3" fill="#2ca6ed"/><polygon points="371.7,702.1 371.7,743.4 330.4,743.4" fill="#a5d9f7"/><rect x="371.7" y="702.1" width="41.3" height="41.3" fill="#ffe39b"/><polygon points="413,702.1 413,743.4 371.7,743.4" fill="#e1f2fc"/><rect x="413" y="660.8" width="82.6" height="82.6" fill="#ffffff"/><rect x="413" y="660.8" width="41.3" height="41.3" fill="#79c6f3"/><polygon points="454.3,660.8 454.3,702.0999999999999 413,702.0999999999999" fill="#a4d8f7"/><rect x="454.3" y="660.8" width="41.3" height="41.3" fill="#8ecff5"/><polygon points="454.3,660.8 495.6,702.0999999999999 454.3,702.0999999999999" fill="#ffde89"/><rect x="413" y="702.1" width="41.3" height="41.3" fill="#ffd462"/><polygon points="454.3,702.1 454.3,743.4 413,743.4" fill="#c9e8fa"/><rect x="454.3" y="702.1" width="41.3" height="41.3" fill="#ffce4d"/><polygon points="454.3,702.1 495.6,702.1 454.3,743.4" fill="#69bff2"/><rect x="495.6" y="660.8" width="82.6" height="82.6" fill="#c5e7fa"/><polygon points="495.6,660.8 578.2,743.4 495.6,743.4" fill="#fffbf0"/><rect x="578.1999999999999" y="660.8" width="82.6" height="82.6" fill="#ffffff"/><rect x="578.2" y="660.8" width="41.3" height="41.3" fill="#2da6ed"/><polygon points="619.5,660.8 619.5,702.0999999999999 578.2,702.0999999999999" fill="#fffcf5"/><rect x="619.5" y="660.8" width="41.3" height="41.3" fill="#78c6f3"/><polygon points="660.8,660.8 660.8,702.0999999999999 619.5,702.0999999999999" fill="#fff9eb"/><rect x="578.2" y="702.1" width="41.3" height="41.3" fill="#94d1f6"/><polygon points="578.2,702.1 619.5,702.1 578.2,743.4" fill="#ffd361"/><rect x="619.5" y="702.1" width="41.3" height="41.3" fill="#b0ddf8"/><polygon points="619.5,702.1 660.8,743.4 619.5,743.4" fill="#9fd6f7"/><rect x="660.8" y="660.8" width="82.6" height="82.6" fill="#59b9f1"/><polygon points="660.8,660.8 743.4,660.8 743.4,743.4" fill="#ffcb43"/><rect x="743.4" y="660.8" width="82.6" height="82.6" fill="#ffffff"/><rect x="743.4" y="660.8" width="41.3" height="41.3" fill="#fdfeff"/><polygon points="743.4,660.8 784.6999999999999,660.8 743.4,702.0999999999999" fill="#ffe6a5"/><rect x="784.7" y="660.8" width="41.3" height="41.3" fill="#c5e7fa"/><polygon points="784.7,660.8 826,660.8 784.7,702.0999999999999" fill="#149ceb"/><rect x="743.4" y="702.1" width="41.3" height="41.3" fill="#0997ea"/><polygon points="743.4,702.1 784.6999999999999,702.1 743.4,743.4" fill="#ffde89"/><rect x="784.7" y="702.1" width="41.3" height="41.3" fill="#fffcf3"/><polygon points="826,702.1 826,743.4 784.7,743.4" fill="#64bdf2"/><rect x="826" y="660.8" width="82.6" height="82.6" fill="#41afef"/><polygon points="826,660.8 908.6,660.8 908.6,743.4" fill="#ffce4f"/><rect x="908.6" y="660.8" width="82.6" height="82.6" fill="#79c6f3"/><polygon points="991.2,660.8 991.2,743.4 908.6,743.4" fill="#6dc1f2"/><rect x="991.2" y="660.8" width="82.6" height="82.6" fill="#ffda78"/><polygon points="991.2,660.8 1073.8,660.8 1073.8,743.4" fill="#1d9feb"/><rect x="1073.8" y="660.8" width="82.6" height="82.6" fill="#fff8e5"/><polygon points="1073.8,660.8 1156.3999999999999,660.8 1156.3999999999999,743.4" fill="#fff2cf"/><rect x="1156.4" y="660.8" width="82.6" height="82.6" fill="#fffcf4"/><polygon points="1239,660.8 1239,743.4 1156.4,743.4" fill="#ffdd85"/><rect x="1239" y="660.8" width="82.6" height="82.6" fill="#ffca3f"/><polygon points="1239,660.8 1321.6,660.8 1321.6,743.4" fill="#94d2f6"/><rect x="0" y="743.4" width="82.6" height="82.6" fill="#ffffff"/><rect x="0" y="743.4" width="41.3" height="41.3" fill="#159ceb"/><polygon points="0,743.4 41.3,743.4 0,784.6999999999999" fill="#0695ea"/><rect x="41.3" y="743.4" width="41.3" height="41.3" fill="#ffe8ab"/><polygon points="41.3,743.4 82.6,743.4 41.3,784.6999999999999" fill="#189deb"/><rect x="0" y="784.7" width="41.3" height="41.3" fill="#c3e6fa"/><polygon points="0,784.7 41.3,784.7 0,826" fill="#ffcd49"/><rect x="41.3" y="784.7" width="41.3" height="41.3" fill="#fff7e3"/><polygon points="41.3,784.7 82.6,784.7 41.3,826" fill="#129beb"/><rect x="82.6" y="743.4" width="82.6" height="82.6" fill="#fffbef"/><polygon points="82.6,743.4 165.2,743.4 165.2,826" fill="#bde3f9"/><rect x="165.2" y="743.4" width="82.6" height="82.6" fill="#ffffff"/><rect x="165.2" y="743.4" width="41.3" height="41.3" fill="#8acef5"/><polygon points="165.2,743.4 206.5,743.4 206.5,784.6999999999999" fill="#ffe295"/><rect x="206.5" y="743.4" width="41.3" height="41.3" fill="#3dadee"/><polygon points="206.5,743.4 247.8,784.6999999999999 206.5,784.6999999999999" fill="#179deb"/><rect x="165.2" y="784.7" width="41.3" height="41.3" fill="#ffd976"/><polygon points="165.2,784.7 206.5,784.7 165.2,826" fill="#ffe49e"/><rect x="206.5" y="784.7" width="41.3" height="41.3" fill="#66bef2"/><polygon points="206.5,784.7 247.8,826 206.5,826" fill="#ffe49f"/><rect x="247.79999999999998" y="743.4" width="82.6" height="82.6" fill="#ffffff"/><rect x="247.8" y="743.4" width="41.3" height="41.3" fill="#51b5f0"/><polygon points="247.8,743.4 289.1,743.4 247.8,784.6999999999999" fill="#fffdf7"/><rect x="289.1" y="743.4" width="41.3" height="41.3" fill="#fff5db"/><polygon points="289.1,743.4 330.40000000000003,743.4 330.40000000000003,784.6999999999999" fill="#ffebb8"/><rect x="247.8" y="784.7" width="41.3" height="41.3" fill="#a3d8f7"/><polygon points="247.8,784.7 289.1,826 247.8,826" fill="#d8eefc"/><rect x="289.1" y="784.7" width="41.3" height="41.3" fill="#24a2ec"/><polygon points="289.1,784.7 330.40000000000003,826 289.1,826" fill="#b7e1f9"/><rect x="330.4" y="743.4" width="82.6" height="82.6" fill="#ffd465"/><polygon points="330.4,743.4 413,743.4 413,826" fill="#26a3ec"/><rect x="413" y="743.4" width="82.6" height="82.6" fill="#2aa5ed"/><polygon points="413,743.4 495.6,743.4 413,826" fill="#ffcb43"/><rect x="495.6" y="743.4" width="82.6" height="82.6" fill="#76c5f3"/><polygon points="578.2,743.4 578.2,826 495.6,826" fill="#ffeab2"/><rect x="578.2" y="743.4" width="82.6" height="82.6" fill="#ffd871"/><polygon points="578.2,743.4 660.8000000000001,743.4 660.8000000000001,826" fill="#ffdc81"/><rect x="660.8" y="743.4" width="82.6" height="82.6" fill="#ffffff"/><rect x="660.8" y="743.4" width="41.3" height="41.3" fill="#ffd770"/><polygon points="702.0999999999999,743.4 702.0999999999999,784.6999999999999 660.8,784.6999999999999" fill="#fafdff"/><rect x="702.1" y="743.4" width="41.3" height="41.3" fill="#21a1ec"/><polygon points="702.1,743.4 743.4,743.4 702.1,784.6999999999999" fill="#fff5d9"/><rect x="660.8" y="784.7" width="41.3" height="41.3" fill="#0193e9"/><polygon points="660.8,784.7 702.0999999999999,784.7 702.0999999999999,826" fill="#f0f9fe"/><rect x="702.1" y="784.7" width="41.3" height="41.3" fill="#91d0f5"/><polygon points="743.4,784.7 743.4,826 702.1,826" fill="#ffd566"/><rect x="743.4" y="743.4" width="82.6" height="82.6" fill="#ffffff"/><rect x="743.4" y="743.4" width="41.3" height="41.3" fill="#fffbf0"/><polygon points="743.4,743.4 784.6999999999999,743.4 743.4,784.6999999999999" fill="#ffdc80"/><rect x="784.7" y="743.4" width="41.3" height="41.3" fill="#fff6de"/><polygon points="784.7,743.4 826,784.6999999999999 784.7,784.6999999999999" fill="#ffdb7d"/><rect x="743.4" y="784.7" width="41.3" height="41.3" fill="#ffd66d"/><polygon points="784.6999999999999,784.7 784.6999999999999,826 743.4,826" fill="#ffcc46"/><rect x="784.7" y="784.7" width="41.3" height="41.3" fill="#ffe6a6"/><polygon points="784.7,784.7 826,826 784.7,826" fill="#63bdf2"/><rect x="826" y="743.4" width="82.6" height="82.6" fill="#fff1cc"/><polygon points="826,743.4 908.6,826 826,826" fill="#ffe08e"/><rect x="908.5999999999999" y="743.4" width="82.6" height="82.6" fill="#ffffff"/><rect x="908.6" y="743.4" width="41.3" height="41.3" fill="#fff7e1"/><polygon points="908.6,743.4 949.9,784.6999999999999 908.6,784.6999999999999" fill="#86ccf5"/><rect x="949.9" y="743.4" width="41.3" height="41.3" fill="#ffcf53"/><polygon points="949.9,743.4 991.1999999999999,784.6999999999999 949.9,784.6999999999999" fill="#fff7e3"/><rect x="908.6" y="784.7" width="41.3" height="41.3" fill="#ffd362"/><polygon points="908.6,784.7 949.9,784.7 908.6,826" fill="#ffcd4a"/><rect x="949.9" y="784.7" width="41.3" height="41.3" fill="#6bc0f2"/><polygon points="949.9,784.7 991.1999999999999,784.7 949.9,826" fill="#e8f5fd"/><rect x="991.2" y="743.4" width="82.6" height="82.6" fill="#ffd873"/><polygon points="991.2,743.4 1073.8,743.4 991.2,826" fill="#ffe193"/><rect x="1073.8" y="743.4" width="82.6" height="82.6" fill="#ffffff"/><rect x="1073.8" y="743.4" width="41.3" height="41.3" fill="#ffe298"/><polygon points="1073.8,743.4 1115.1,784.6999999999999 1073.8,784.6999999999999" fill="#ffde87"/><rect x="1115.1" y="743.4" width="41.3" height="41.3" fill="#20a1ec"/><polygon points="1115.1,743.4 1156.3999999999999,743.4 1156.3999999999999,784.6999999999999" fill="#b1def8"/><rect x="1073.8" y="784.7" width="41.3" height="41.3" fill="#42afef"/><polygon points="1073.8,784.7 1115.1,784.7 1115.1,826" fill="#fff7e1"/><rect x="1115.1" y="784.7" width="41.3" height="41.3" fill="#149ceb"/><polygon points="1115.1,784.7 1156.3999999999999,784.7 1156.3999999999999,826" fill="#edf7fd"/><rect x="1156.4" y="743.4" width="82.6" height="82.6" fill="#ffca3e"/><polygon points="1156.4,743.4 1239,743.4 1156.4,826" fill="#ffedbe"/><rect x="1239" y="743.4" width="82.6" height="82.6" fill="#ffffff"/><rect x="1239" y="743.4" width="41.3" height="41.3" fill="#ffcb43"/><polygon points="1239,743.4 1280.3,743.4 1239,784.6999999999999" fill="#ddf1fc"/><rect x="1280.3" y="743.4" width="41.3" height="41.3" fill="#ffd978"/><polygon points="1280.3,743.4 1321.6,784.6999999999999 1280.3,784.6999999999999" fill="#fff8e7"/><rect x="1239" y="784.7" width="41.3" height="41.3" fill="#ffebb8"/><polygon points="1239,784.7 1280.3,784.7 1280.3,826" fill="#fff0cb"/><rect x="1280.3" y="784.7" width="41.3" height="41.3" fill="#ffca3e"/><polygon points="1280.3,784.7 1321.6,784.7 1280.3,826" fill="#21a1ec"/></g></svg>