<?xml version="1.0" standalone="no"?><svg xmlns:xlink="http://www.w3.org/1999/xlink" xmlns="http://www.w3.org/2000/svg" viewBox="0 0 1000 625.0047291520063" preserveAspectRatio="xMaxYMax slice"><g transform="scale(0.7566643210072715)"><rect x="0" y="0" width="1321.6" height="826" fill="#ffffff"/><rect x="0" y="0" width="82.6" height="82.6" fill="#ffffff"/><rect x="0" y="0" width="41.3" height="41.3" fill="#a2d5f2"/><polygon points="41.3,0 41.3,41.3 0,41.3" fill="#40a8c4"/><rect x="41.3" y="0" width="41.3" height="41.3" fill="#a2d5f2"/><polygon points="41.3,0 82.6,41.3 41.3,41.3" fill="#a2d5f2"/><rect x="0" y="41.3" width="41.3" height="41.3" fill="#a2d5f2"/><polygon points="0,41.3 41.3,41.3 41.3,82.6" fill="#a2d5f2"/><rect x="41.3" y="41.3" width="41.3" height="41.3" fill="#a2d5f2"/><polygon points="41.3,41.3 82.6,41.3 41.3,82.6" fill="#a2d5f2"/><rect x="82.6" y="0" width="82.6" height="82.6" fill="#a2d5f2"/><polygon points="82.6,0 165.2,0 165.2,82.6" fill="#a2d5f2"/><rect x="165.2" y="0" width="82.6" height="82.6" fill="#a2d5f2"/><polygon points="165.2,0 247.79999999999998,0 165.2,82.6" fill="#40a8c4"/><rect x="247.79999999999998" y="0" width="82.6" height="82.6" fill="#ffffff"/><rect x="247.8" y="0" width="41.3" height="41.3" fill="#a2d5f2"/><polygon points="247.8,0 289.1,41.3 247.8,41.3" fill="#a2d5f2"/><rect x="289.1" y="0" width="41.3" height="41.3" fill="#40a8c4"/><polygon points="330.40000000000003,0 330.40000000000003,41.3 289.1,41.3" fill="#a2d5f2"/><rect x="247.8" y="41.3" width="41.3" height="41.3" fill="#40a8c4"/><polygon points="289.1,41.3 289.1,82.6 247.8,82.6" fill="#40a8c4"/><rect x="289.1" y="41.3" width="41.3" height="41.3" fill="#a2d5f2"/><polygon points="289.1,41.3 330.40000000000003,41.3 289.1,82.6" fill="#40a8c4"/><rect x="330.4" y="0" width="82.6" height="82.6" fill="#ffffff"/><rect x="330.4" y="0" width="41.3" height="41.3" fill="#a2d5f2"/><polygon points="330.4,0 371.7,0 330.4,41.3" fill="#40a8c4"/><rect x="371.7" y="0" width="41.3" height="41.3" fill="#a2d5f2"/><polygon points="371.7,0 413,0 413,41.3" fill="#a2d5f2"/><rect x="330.4" y="41.3" width="41.3" height="41.3" fill="#40a8c4"/><polygon points="371.7,41.3 371.7,82.6 330.4,82.6" fill="#40a8c4"/><rect x="371.7" y="41.3" width="41.3" height="41.3" fill="#40a8c4"/><polygon points="371.7,41.3 413,41.3 413,82.6" fill="#a2d5f2"/><rect x="413" y="0" width="82.6" height="82.6" fill="#40a8c4"/><polygon points="413,0 495.6,0 495.6,82.6" fill="#40a8c4"/><rect x="495.6" y="0" width="82.6" height="82.6" fill="#40a8c4"/><polygon points="495.6,0 578.2,0 495.6,82.6" fill="#40a8c4"/><rect x="578.1999999999999" y="0" width="82.6" height="82.6" fill="#ffffff"/><rect x="578.2" y="0" width="41.3" height="41.3" fill="#a2d5f2"/><polygon points="578.2,0 619.5,41.3 578.2,41.3" fill="#a2d5f2"/><rect x="619.5" y="0" width="41.3" height="41.3" fill="#40a8c4"/><polygon points="619.5,0 660.8,0 619.5,41.3" fill="#a2d5f2"/><rect x="578.2" y="41.3" width="41.3" height="41.3" fill="#a2d5f2"/><polygon points="578.2,41.3 619.5,41.3 578.2,82.6" fill="#a2d5f2"/><rect x="619.5" y="41.3" width="41.3" height="41.3" fill="#a2d5f2"/><polygon points="619.5,41.3 660.8,82.6 619.5,82.6" fill="#a2d5f2"/><rect x="660.8" y="0" width="82.6" height="82.6" fill="#ffffff"/><rect x="660.8" y="0" width="41.3" height="41.3" fill="#a2d5f2"/><polygon points="660.8,0 702.0999999999999,0 660.8,41.3" fill="#40a8c4"/><rect x="702.1" y="0" width="41.3" height="41.3" fill="#a2d5f2"/><polygon points="702.1,0 743.4,41.3 702.1,41.3" fill="#40a8c4"/><rect x="660.8" y="41.3" width="41.3" height="41.3" fill="#40a8c4"/><polygon points="702.0999999999999,41.3 702.0999999999999,82.6 660.8,82.6" fill="#40a8c4"/><rect x="702.1" y="41.3" width="41.3" height="41.3" fill="#a2d5f2"/><polygon points="702.1,41.3 743.4,41.3 743.4,82.6" fill="#40a8c4"/><rect x="743.4" y="0" width="82.6" height="82.6" fill="#ffffff"/><rect x="743.4" y="0" width="41.3" height="41.3" fill="#a2d5f2"/><polygon points="743.4,0 784.6999999999999,41.3 743.4,41.3" fill="#a2d5f2"/><rect x="784.7" y="0" width="41.3" height="41.3" fill="#a2d5f2"/><polygon points="784.7,0 826,0 826,41.3" fill="#a2d5f2"/><rect x="743.4" y="41.3" width="41.3" height="41.3" fill="#40a8c4"/><polygon points="743.4,41.3 784.6999999999999,41.3 784.6999999999999,82.6" fill="#40a8c4"/><rect x="784.7" y="41.3" width="41.3" height="41.3" fill="#40a8c4"/><polygon points="784.7,41.3 826,41.3 784.7,82.6" fill="#a2d5f2"/><rect x="826" y="0" width="82.6" height="82.6" fill="#ffffff"/><rect x="826" y="0" width="41.3" height="41.3" fill="#a2d5f2"/><polygon points="867.3,0 867.3,41.3 826,41.3" fill="#40a8c4"/><rect x="867.3" y="0" width="41.3" height="41.3" fill="#40a8c4"/><polygon points="867.3,0 908.5999999999999,41.3 867.3,41.3" fill="#40a8c4"/><rect x="826" y="41.3" width="41.3" height="41.3" fill="#a2d5f2"/><polygon points="826,41.3 867.3,41.3 826,82.6" fill="#a2d5f2"/><rect x="867.3" y="41.3" width="41.3" height="41.3" fill="#40a8c4"/><polygon points="867.3,41.3 908.5999999999999,41.3 908.5999999999999,82.6" fill="#a2d5f2"/><rect x="908.6" y="0" width="82.6" height="82.6" fill="#a2d5f2"/><polygon points="908.6,0 991.2,0 991.2,82.6" fill="#40a8c4"/><rect x="991.1999999999999" y="0" width="82.6" height="82.6" fill="#ffffff"/><rect x="991.2" y="0" width="41.3" height="41.3" fill="#a2d5f2"/><polygon points="1032.5,0 1032.5,41.3 991.2,41.3" fill="#a2d5f2"/><rect x="1032.5" y="0" width="41.3" height="41.3" fill="#a2d5f2"/><polygon points="1032.5,0 1073.8,0 1073.8,41.3" fill="#40a8c4"/><rect x="991.2" y="41.3" width="41.3" height="41.3" fill="#40a8c4"/><polygon points="1032.5,41.3 1032.5,82.6 991.2,82.6" fill="#40a8c4"/><rect x="1032.5" y="41.3" width="41.3" height="41.3" fill="#40a8c4"/><polygon points="1073.8,41.3 1073.8,82.6 1032.5,82.6" fill="#a2d5f2"/><rect x="1073.8" y="0" width="82.6" height="82.6" fill="#a2d5f2"/><polygon points="1156.3999999999999,0 1156.3999999999999,82.6 1073.8,82.6" fill="#40a8c4"/><rect x="1156.3999999999999" y="0" width="82.6" height="82.6" fill="#ffffff"/><rect x="1156.4" y="0" width="41.3" height="41.3" fill="#a2d5f2"/><polygon points="1197.7,0 1197.7,41.3 1156.4,41.3" fill="#a2d5f2"/><rect x="1197.7" y="0" width="41.3" height="41.3" fill="#a2d5f2"/><polygon points="1197.7,0 1239,41.3 1197.7,41.3" fill="#a2d5f2"/><rect x="1156.4" y="41.3" width="41.3" height="41.3" fill="#40a8c4"/><polygon points="1156.4,41.3 1197.7,82.6 1156.4,82.6" fill="#a2d5f2"/><rect x="1197.7" y="41.3" width="41.3" height="41.3" fill="#40a8c4"/><polygon points="1239,41.3 1239,82.6 1197.7,82.6" fill="#a2d5f2"/><rect x="1239" y="0" width="82.6" height="82.6" fill="#a2d5f2"/><polygon points="1239,0 1321.6,82.6 1239,82.6" fill="#40a8c4"/><rect x="0" y="82.6" width="82.6" height="82.6" fill="#a2d5f2"/><polygon points="82.6,82.6 82.6,165.2 0,165.2" fill="#40a8c4"/><rect x="82.6" y="82.6" width="82.6" height="82.6" fill="#a2d5f2"/><polygon points="165.2,82.6 165.2,165.2 82.6,165.2" fill="#40a8c4"/><rect x="165.2" y="82.6" width="82.6" height="82.6" fill="#40a8c4"/><polygon points="165.2,82.6 247.79999999999998,82.6 247.79999999999998,165.2" fill="#a2d5f2"/><rect x="247.79999999999998" y="82.6" width="82.6" height="82.6" fill="#ffffff"/><rect x="247.8" y="82.6" width="41.3" height="41.3" fill="#40a8c4"/><polygon points="289.1,82.6 289.1,123.89999999999999 247.8,123.89999999999999" fill="#40a8c4"/><rect x="289.1" y="82.6" width="41.3" height="41.3" fill="#a2d5f2"/><polygon points="289.1,82.6 330.40000000000003,82.6 330.40000000000003,123.89999999999999" fill="#40a8c4"/><rect x="247.8" y="123.9" width="41.3" height="41.3" fill="#40a8c4"/><polygon points="289.1,123.9 289.1,165.2 247.8,165.2" fill="#a2d5f2"/><rect x="289.1" y="123.9" width="41.3" height="41.3" fill="#40a8c4"/><polygon points="289.1,123.9 330.40000000000003,123.9 330.40000000000003,165.2" fill="#40a8c4"/><rect x="330.4" y="82.6" width="82.6" height="82.6" fill="#ffffff"/><rect x="330.4" y="82.6" width="41.3" height="41.3" fill="#a2d5f2"/><polygon points="330.4,82.6 371.7,123.89999999999999 330.4,123.89999999999999" fill="#40a8c4"/><rect x="371.7" y="82.6" width="41.3" height="41.3" fill="#40a8c4"/><polygon points="371.7,82.6 413,82.6 371.7,123.89999999999999" fill="#40a8c4"/><rect x="330.4" y="123.9" width="41.3" height="41.3" fill="#40a8c4"/><polygon points="371.7,123.9 371.7,165.2 330.4,165.2" fill="#40a8c4"/><rect x="371.7" y="123.9" width="41.3" height="41.3" fill="#40a8c4"/><polygon points="371.7,123.9 413,165.2 371.7,165.2" fill="#a2d5f2"/><rect x="413" y="82.6" width="82.6" height="82.6" fill="#ffffff"/><rect x="413" y="82.6" width="41.3" height="41.3" fill="#40a8c4"/><polygon points="413,82.6 454.3,82.6 413,123.89999999999999" fill="#a2d5f2"/><rect x="454.3" y="82.6" width="41.3" height="41.3" fill="#40a8c4"/><polygon points="454.3,82.6 495.6,82.6 495.6,123.89999999999999" fill="#a2d5f2"/><rect x="413" y="123.9" width="41.3" height="41.3" fill="#40a8c4"/><polygon points="413,123.9 454.3,123.9 454.3,165.2" fill="#40a8c4"/><rect x="454.3" y="123.9" width="41.3" height="41.3" fill="#40a8c4"/><polygon points="454.3,123.9 495.6,123.9 454.3,165.2" fill="#40a8c4"/><rect x="495.6" y="82.6" width="82.6" height="82.6" fill="#40a8c4"/><polygon points="495.6,82.6 578.2,165.2 495.6,165.2" fill="#a2d5f2"/><rect x="578.2" y="82.6" width="82.6" height="82.6" fill="#a2d5f2"/><polygon points="578.2,82.6 660.8000000000001,82.6 578.2,165.2" fill="#a2d5f2"/><rect x="660.8" y="82.6" width="82.6" height="82.6" fill="#a2d5f2"/><polygon points="660.8,82.6 743.4,82.6 743.4,165.2" fill="#a2d5f2"/><rect x="743.4" y="82.6" width="82.6" height="82.6" fill="#ffffff"/><rect x="743.4" y="82.6" width="41.3" height="41.3" fill="#a2d5f2"/><polygon points="743.4,82.6 784.6999999999999,82.6 784.6999999999999,123.89999999999999" fill="#40a8c4"/><rect x="784.7" y="82.6" width="41.3" height="41.3" fill="#a2d5f2"/><polygon points="826,82.6 826,123.89999999999999 784.7,123.89999999999999" fill="#40a8c4"/><rect x="743.4" y="123.9" width="41.3" height="41.3" fill="#a2d5f2"/><polygon points="743.4,123.9 784.6999999999999,123.9 784.6999999999999,165.2" fill="#a2d5f2"/><rect x="784.7" y="123.9" width="41.3" height="41.3" fill="#a2d5f2"/><polygon points="784.7,123.9 826,165.2 784.7,165.2" fill="#40a8c4"/><rect x="826" y="82.6" width="82.6" height="82.6" fill="#a2d5f2"/><polygon points="908.6,82.6 908.6,165.2 826,165.2" fill="#a2d5f2"/><rect x="908.5999999999999" y="82.6" width="82.6" height="82.6" fill="#ffffff"/><rect x="908.6" y="82.6" width="41.3" height="41.3" fill="#a2d5f2"/><polygon points="908.6,82.6 949.9,82.6 949.9,123.89999999999999" fill="#40a8c4"/><rect x="949.9" y="82.6" width="41.3" height="41.3" fill="#40a8c4"/><polygon points="991.1999999999999,82.6 991.1999999999999,123.89999999999999 949.9,123.89999999999999" fill="#40a8c4"/><rect x="908.6" y="123.9" width="41.3" height="41.3" fill="#a2d5f2"/><polygon points="949.9,123.9 949.9,165.2 908.6,165.2" fill="#a2d5f2"/><rect x="949.9" y="123.9" width="41.3" height="41.3" fill="#40a8c4"/><polygon points="949.9,123.9 991.1999999999999,123.9 991.1999999999999,165.2" fill="#40a8c4"/><rect x="991.2" y="82.6" width="82.6" height="82.6" fill="#40a8c4"/><polygon points="991.2,82.6 1073.8,82.6 991.2,165.2" fill="#40a8c4"/><rect x="1073.8" y="82.6" width="82.6" height="82.6" fill="#ffffff"/><rect x="1073.8" y="82.6" width="41.3" height="41.3" fill="#a2d5f2"/><polygon points="1073.8,82.6 1115.1,82.6 1115.1,123.89999999999999" fill="#a2d5f2"/><rect x="1115.1" y="82.6" width="41.3" height="41.3" fill="#a2d5f2"/><polygon points="1115.1,82.6 1156.3999999999999,82.6 1115.1,123.89999999999999" fill="#40a8c4"/><rect x="1073.8" y="123.9" width="41.3" height="41.3" fill="#a2d5f2"/><polygon points="1073.8,123.9 1115.1,165.2 1073.8,165.2" fill="#40a8c4"/><rect x="1115.1" y="123.9" width="41.3" height="41.3" fill="#40a8c4"/><polygon points="1115.1,123.9 1156.3999999999999,123.9 1115.1,165.2" fill="#a2d5f2"/><rect x="1156.4" y="82.6" width="82.6" height="82.6" fill="#a2d5f2"/><polygon points="1239,82.6 1239,165.2 1156.4,165.2" fill="#a2d5f2"/><rect x="1239" y="82.6" width="82.6" height="82.6" fill="#a2d5f2"/><polygon points="1239,82.6 1321.6,82.6 1239,165.2" fill="#40a8c4"/><rect x="0" y="165.2" width="82.6" height="82.6" fill="#ffffff"/><rect x="0" y="165.2" width="41.3" height="41.3" fill="#a2d5f2"/><polygon points="0,165.2 41.3,165.2 41.3,206.5" fill="#40a8c4"/><rect x="41.3" y="165.2" width="41.3" height="41.3" fill="#40a8c4"/><polygon points="41.3,165.2 82.6,165.2 82.6,206.5" fill="#a2d5f2"/><rect x="0" y="206.5" width="41.3" height="41.3" fill="#40a8c4"/><polygon points="0,206.5 41.3,206.5 0,247.8" fill="#a2d5f2"/><rect x="41.3" y="206.5" width="41.3" height="41.3" fill="#a2d5f2"/><polygon points="41.3,206.5 82.6,247.8 41.3,247.8" fill="#a2d5f2"/><rect x="82.6" y="165.2" width="82.6" height="82.6" fill="#40a8c4"/><polygon points="165.2,165.2 165.2,247.79999999999998 82.6,247.79999999999998" fill="#a2d5f2"/><rect x="165.2" y="165.2" width="82.6" height="82.6" fill="#a2d5f2"/><polygon points="165.2,165.2 247.79999999999998,165.2 247.79999999999998,247.79999999999998" fill="#40a8c4"/><rect x="247.8" y="165.2" width="82.6" height="82.6" fill="#a2d5f2"/><polygon points="247.8,165.2 330.4,247.79999999999998 247.8,247.79999999999998" fill="#40a8c4"/><rect x="330.4" y="165.2" width="82.6" height="82.6" fill="#a2d5f2"/><polygon points="330.4,165.2 413,247.79999999999998 330.4,247.79999999999998" fill="#40a8c4"/><rect x="413" y="165.2" width="82.6" height="82.6" fill="#ffffff"/><rect x="413" y="165.2" width="41.3" height="41.3" fill="#a2d5f2"/><polygon points="413,165.2 454.3,165.2 413,206.5" fill="#40a8c4"/><rect x="454.3" y="165.2" width="41.3" height="41.3" fill="#40a8c4"/><polygon points="454.3,165.2 495.6,165.2 495.6,206.5" fill="#a2d5f2"/><rect x="413" y="206.5" width="41.3" height="41.3" fill="#40a8c4"/><polygon points="413,206.5 454.3,247.8 413,247.8" fill="#40a8c4"/><rect x="454.3" y="206.5" width="41.3" height="41.3" fill="#a2d5f2"/><polygon points="454.3,206.5 495.6,206.5 454.3,247.8" fill="#a2d5f2"/><rect x="495.59999999999997" y="165.2" width="82.6" height="82.6" fill="#ffffff"/><rect x="495.6" y="165.2" width="41.3" height="41.3" fill="#40a8c4"/><polygon points="495.6,165.2 536.9,206.5 495.6,206.5" fill="#a2d5f2"/><rect x="536.9" y="165.2" width="41.3" height="41.3" fill="#a2d5f2"/><polygon points="536.9,165.2 578.1999999999999,165.2 578.1999999999999,206.5" fill="#a2d5f2"/><rect x="495.6" y="206.5" width="41.3" height="41.3" fill="#a2d5f2"/><polygon points="536.9,206.5 536.9,247.8 495.6,247.8" fill="#40a8c4"/><rect x="536.9" y="206.5" width="41.3" height="41.3" fill="#a2d5f2"/><polygon points="536.9,206.5 578.1999999999999,206.5 578.1999999999999,247.8" fill="#a2d5f2"/><rect x="578.2" y="165.2" width="82.6" height="82.6" fill="#40a8c4"/><polygon points="578.2,165.2 660.8000000000001,165.2 660.8000000000001,247.79999999999998" fill="#a2d5f2"/><rect x="660.8" y="165.2" width="82.6" height="82.6" fill="#ffffff"/><rect x="660.8" y="165.2" width="41.3" height="41.3" fill="#a2d5f2"/><polygon points="660.8,165.2 702.0999999999999,206.5 660.8,206.5" fill="#40a8c4"/><rect x="702.1" y="165.2" width="41.3" height="41.3" fill="#a2d5f2"/><polygon points="702.1,165.2 743.4,165.2 743.4,206.5" fill="#a2d5f2"/><rect x="660.8" y="206.5" width="41.3" height="41.3" fill="#40a8c4"/><polygon points="660.8,206.5 702.0999999999999,247.8 660.8,247.8" fill="#a2d5f2"/><rect x="702.1" y="206.5" width="41.3" height="41.3" fill="#40a8c4"/><polygon points="743.4,206.5 743.4,247.8 702.1,247.8" fill="#a2d5f2"/><rect x="743.4" y="165.2" width="82.6" height="82.6" fill="#a2d5f2"/><polygon points="743.4,165.2 826,165.2 826,247.79999999999998" fill="#a2d5f2"/><rect x="826" y="165.2" width="82.6" height="82.6" fill="#ffffff"/><rect x="826" y="165.2" width="41.3" height="41.3" fill="#40a8c4"/><polygon points="826,165.2 867.3,165.2 867.3,206.5" fill="#a2d5f2"/><rect x="867.3" y="165.2" width="41.3" height="41.3" fill="#40a8c4"/><polygon points="908.5999999999999,165.2 908.5999999999999,206.5 867.3,206.5" fill="#40a8c4"/><rect x="826" y="206.5" width="41.3" height="41.3" fill="#a2d5f2"/><polygon points="826,206.5 867.3,206.5 826,247.8" fill="#40a8c4"/><rect x="867.3" y="206.5" width="41.3" height="41.3" fill="#a2d5f2"/><polygon points="867.3,206.5 908.5999999999999,247.8 867.3,247.8" fill="#a2d5f2"/><rect x="908.6" y="165.2" width="82.6" height="82.6" fill="#40a8c4"/><polygon points="908.6,165.2 991.2,165.2 908.6,247.79999999999998" fill="#40a8c4"/><rect x="991.2" y="165.2" width="82.6" height="82.6" fill="#a2d5f2"/><polygon points="991.2,165.2 1073.8,165.2 1073.8,247.79999999999998" fill="#a2d5f2"/><rect x="1073.8" y="165.2" width="82.6" height="82.6" fill="#a2d5f2"/><polygon points="1073.8,165.2 1156.3999999999999,247.79999999999998 1073.8,247.79999999999998" fill="#40a8c4"/><rect x="1156.4" y="165.2" width="82.6" height="82.6" fill="#a2d5f2"/><polygon points="1156.4,165.2 1239,165.2 1156.4,247.79999999999998" fill="#a2d5f2"/><rect x="1239" y="165.2" width="82.6" height="82.6" fill="#40a8c4"/><polygon points="1321.6,165.2 1321.6,247.79999999999998 1239,247.79999999999998" fill="#40a8c4"/><rect x="0" y="247.8" width="82.6" height="82.6" fill="#a2d5f2"/><polygon points="82.6,247.8 82.6,330.4 0,330.4" fill="#40a8c4"/><rect x="82.6" y="247.8" width="82.6" height="82.6" fill="#40a8c4"/><polygon points="82.6,247.8 165.2,247.8 165.2,330.4" fill="#40a8c4"/><rect x="165.2" y="247.79999999999998" width="82.6" height="82.6" fill="#ffffff"/><rect x="165.2" y="247.8" width="41.3" height="41.3" fill="#40a8c4"/><polygon points="206.5,247.8 206.5,289.1 165.2,289.1" fill="#a2d5f2"/><rect x="206.5" y="247.8" width="41.3" height="41.3" fill="#a2d5f2"/><polygon points="206.5,247.8 247.8,289.1 206.5,289.1" fill="#a2d5f2"/><rect x="165.2" y="289.1" width="41.3" height="41.3" fill="#a2d5f2"/><polygon points="165.2,289.1 206.5,330.40000000000003 165.2,330.40000000000003" fill="#a2d5f2"/><rect x="206.5" y="289.1" width="41.3" height="41.3" fill="#a2d5f2"/><polygon points="206.5,289.1 247.8,289.1 247.8,330.40000000000003" fill="#40a8c4"/><rect x="247.79999999999998" y="247.79999999999998" width="82.6" height="82.6" fill="#ffffff"/><rect x="247.8" y="247.8" width="41.3" height="41.3" fill="#40a8c4"/><polygon points="247.8,247.8 289.1,289.1 247.8,289.1" fill="#40a8c4"/><rect x="289.1" y="247.8" width="41.3" height="41.3" fill="#a2d5f2"/><polygon points="289.1,247.8 330.40000000000003,289.1 289.1,289.1" fill="#a2d5f2"/><rect x="247.8" y="289.1" width="41.3" height="41.3" fill="#a2d5f2"/><polygon points="289.1,289.1 289.1,330.40000000000003 247.8,330.40000000000003" fill="#40a8c4"/><rect x="289.1" y="289.1" width="41.3" height="41.3" fill="#40a8c4"/><polygon points="330.40000000000003,289.1 330.40000000000003,330.40000000000003 289.1,330.40000000000003" fill="#40a8c4"/><rect x="330.4" y="247.8" width="82.6" height="82.6" fill="#a2d5f2"/><polygon points="413,247.8 413,330.4 330.4,330.4" fill="#a2d5f2"/><rect x="413" y="247.79999999999998" width="82.6" height="82.6" fill="#ffffff"/><rect x="413" y="247.8" width="41.3" height="41.3" fill="#40a8c4"/><polygon points="413,247.8 454.3,289.1 413,289.1" fill="#a2d5f2"/><rect x="454.3" y="247.8" width="41.3" height="41.3" fill="#a2d5f2"/><polygon points="454.3,247.8 495.6,247.8 495.6,289.1" fill="#a2d5f2"/><rect x="413" y="289.1" width="41.3" height="41.3" fill="#40a8c4"/><polygon points="413,289.1 454.3,289.1 413,330.40000000000003" fill="#40a8c4"/><rect x="454.3" y="289.1" width="41.3" height="41.3" fill="#40a8c4"/><polygon points="454.3,289.1 495.6,289.1 495.6,330.40000000000003" fill="#40a8c4"/><rect x="495.6" y="247.8" width="82.6" height="82.6" fill="#40a8c4"/><polygon points="495.6,247.8 578.2,247.8 495.6,330.4" fill="#40a8c4"/><rect x="578.2" y="247.8" width="82.6" height="82.6" fill="#a2d5f2"/><polygon points="660.8000000000001,247.8 660.8000000000001,330.4 578.2,330.4" fill="#40a8c4"/><rect x="660.8" y="247.8" width="82.6" height="82.6" fill="#40a8c4"/><polygon points="660.8,247.8 743.4,247.8 743.4,330.4" fill="#40a8c4"/><rect x="743.4" y="247.8" width="82.6" height="82.6" fill="#a2d5f2"/><polygon points="743.4,247.8 826,330.4 743.4,330.4" fill="#40a8c4"/><rect x="826" y="247.8" width="82.6" height="82.6" fill="#a2d5f2"/><polygon points="826,247.8 908.6,247.8 826,330.4" fill="#a2d5f2"/><rect x="908.6" y="247.8" width="82.6" height="82.6" fill="#40a8c4"/><polygon points="908.6,247.8 991.2,330.4 908.6,330.4" fill="#40a8c4"/><rect x="991.1999999999999" y="247.79999999999998" width="82.6" height="82.6" fill="#ffffff"/><rect x="991.2" y="247.8" width="41.3" height="41.3" fill="#a2d5f2"/><polygon points="1032.5,247.8 1032.5,289.1 991.2,289.1" fill="#40a8c4"/><rect x="1032.5" y="247.8" width="41.3" height="41.3" fill="#a2d5f2"/><polygon points="1032.5,247.8 1073.8,247.8 1073.8,289.1" fill="#40a8c4"/><rect x="991.2" y="289.1" width="41.3" height="41.3" fill="#40a8c4"/><polygon points="1032.5,289.1 1032.5,330.40000000000003 991.2,330.40000000000003" fill="#40a8c4"/><rect x="1032.5" y="289.1" width="41.3" height="41.3" fill="#40a8c4"/><polygon points="1073.8,289.1 1073.8,330.40000000000003 1032.5,330.40000000000003" fill="#40a8c4"/><rect x="1073.8" y="247.79999999999998" width="82.6" height="82.6" fill="#ffffff"/><rect x="1073.8" y="247.8" width="41.3" height="41.3" fill="#a2d5f2"/><polygon points="1115.1,247.8 1115.1,289.1 1073.8,289.1" fill="#a2d5f2"/><rect x="1115.1" y="247.8" width="41.3" height="41.3" fill="#40a8c4"/><polygon points="1115.1,247.8 1156.3999999999999,247.8 1156.3999999999999,289.1" fill="#40a8c4"/><rect x="1073.8" y="289.1" width="41.3" height="41.3" fill="#a2d5f2"/><polygon points="1115.1,289.1 1115.1,330.40000000000003 1073.8,330.40000000000003" fill="#a2d5f2"/><rect x="1115.1" y="289.1" width="41.3" height="41.3" fill="#40a8c4"/><polygon points="1115.1,289.1 1156.3999999999999,330.40000000000003 1115.1,330.40000000000003" fill="#40a8c4"/><rect x="1156.3999999999999" y="247.79999999999998" width="82.6" height="82.6" fill="#ffffff"/><rect x="1156.4" y="247.8" width="41.3" height="41.3" fill="#40a8c4"/><polygon points="1156.4,247.8 1197.7,247.8 1156.4,289.1" fill="#a2d5f2"/><rect x="1197.7" y="247.8" width="41.3" height="41.3" fill="#a2d5f2"/><polygon points="1197.7,247.8 1239,247.8 1239,289.1" fill="#40a8c4"/><rect x="1156.4" y="289.1" width="41.3" height="41.3" fill="#40a8c4"/><polygon points="1156.4,289.1 1197.7,289.1 1156.4,330.40000000000003" fill="#a2d5f2"/><rect x="1197.7" y="289.1" width="41.3" height="41.3" fill="#a2d5f2"/><polygon points="1197.7,289.1 1239,330.40000000000003 1197.7,330.40000000000003" fill="#40a8c4"/><rect x="1239" y="247.79999999999998" width="82.6" height="82.6" fill="#ffffff"/><rect x="1239" y="247.8" width="41.3" height="41.3" fill="#40a8c4"/><polygon points="1239,247.8 1280.3,247.8 1280.3,289.1" fill="#40a8c4"/><rect x="1280.3" y="247.8" width="41.3" height="41.3" fill="#a2d5f2"/><polygon points="1280.3,247.8 1321.6,247.8 1280.3,289.1" fill="#a2d5f2"/><rect x="1239" y="289.1" width="41.3" height="41.3" fill="#40a8c4"/><polygon points="1239,289.1 1280.3,289.1 1239,330.40000000000003" fill="#a2d5f2"/><rect x="1280.3" y="289.1" width="41.3" height="41.3" fill="#a2d5f2"/><polygon points="1280.3,289.1 1321.6,289.1 1280.3,330.40000000000003" fill="#a2d5f2"/><rect x="0" y="330.4" width="82.6" height="82.6" fill="#ffffff"/><rect x="0" y="330.4" width="41.3" height="41.3" fill="#a2d5f2"/><polygon points="0,330.4 41.3,371.7 0,371.7" fill="#40a8c4"/><rect x="41.3" y="330.4" width="41.3" height="41.3" fill="#a2d5f2"/><polygon points="41.3,330.4 82.6,371.7 41.3,371.7" fill="#40a8c4"/><rect x="0" y="371.7" width="41.3" height="41.3" fill="#40a8c4"/><polygon points="41.3,371.7 41.3,413 0,413" fill="#a2d5f2"/><rect x="41.3" y="371.7" width="41.3" height="41.3" fill="#40a8c4"/><polygon points="41.3,371.7 82.6,371.7 41.3,413" fill="#40a8c4"/><rect x="82.6" y="330.4" width="82.6" height="82.6" fill="#40a8c4"/><polygon points="82.6,330.4 165.2,330.4 82.6,413" fill="#40a8c4"/><rect x="165.2" y="330.4" width="82.6" height="82.6" fill="#ffffff"/><rect x="165.2" y="330.4" width="41.3" height="41.3" fill="#a2d5f2"/><polygon points="165.2,330.4 206.5,330.4 206.5,371.7" fill="#a2d5f2"/><rect x="206.5" y="330.4" width="41.3" height="41.3" fill="#40a8c4"/><polygon points="206.5,330.4 247.8,330.4 206.5,371.7" fill="#40a8c4"/><rect x="165.2" y="371.7" width="41.3" height="41.3" fill="#40a8c4"/><polygon points="206.5,371.7 206.5,413 165.2,413" fill="#40a8c4"/><rect x="206.5" y="371.7" width="41.3" height="41.3" fill="#40a8c4"/><polygon points="206.5,371.7 247.8,371.7 247.8,413" fill="#40a8c4"/><rect x="247.79999999999998" y="330.4" width="82.6" height="82.6" fill="#ffffff"/><rect x="247.8" y="330.4" width="41.3" height="41.3" fill="#a2d5f2"/><polygon points="247.8,330.4 289.1,330.4 247.8,371.7" fill="#40a8c4"/><rect x="289.1" y="330.4" width="41.3" height="41.3" fill="#a2d5f2"/><polygon points="330.40000000000003,330.4 330.40000000000003,371.7 289.1,371.7" fill="#a2d5f2"/><rect x="247.8" y="371.7" width="41.3" height="41.3" fill="#40a8c4"/><polygon points="247.8,371.7 289.1,413 247.8,413" fill="#a2d5f2"/><rect x="289.1" y="371.7" width="41.3" height="41.3" fill="#a2d5f2"/><polygon points="289.1,371.7 330.40000000000003,413 289.1,413" fill="#40a8c4"/><rect x="330.4" y="330.4" width="82.6" height="82.6" fill="#40a8c4"/><polygon points="330.4,330.4 413,330.4 413,413" fill="#a2d5f2"/><rect x="413" y="330.4" width="82.6" height="82.6" fill="#a2d5f2"/><polygon points="413,330.4 495.6,330.4 495.6,413" fill="#40a8c4"/><rect x="495.59999999999997" y="330.4" width="82.6" height="82.6" fill="#ffffff"/><rect x="495.6" y="330.4" width="41.3" height="41.3" fill="#40a8c4"/><polygon points="536.9,330.4 536.9,371.7 495.6,371.7" fill="#a2d5f2"/><rect x="536.9" y="330.4" width="41.3" height="41.3" fill="#40a8c4"/><polygon points="578.1999999999999,330.4 578.1999999999999,371.7 536.9,371.7" fill="#a2d5f2"/><rect x="495.6" y="371.7" width="41.3" height="41.3" fill="#a2d5f2"/><polygon points="495.6,371.7 536.9,371.7 536.9,413" fill="#a2d5f2"/><rect x="536.9" y="371.7" width="41.3" height="41.3" fill="#40a8c4"/><polygon points="536.9,371.7 578.1999999999999,371.7 578.1999999999999,413" fill="#a2d5f2"/><rect x="578.1999999999999" y="330.4" width="82.6" height="82.6" fill="#ffffff"/><rect x="578.2" y="330.4" width="41.3" height="41.3" fill="#a2d5f2"/><polygon points="578.2,330.4 619.5,330.4 578.2,371.7" fill="#a2d5f2"/><rect x="619.5" y="330.4" width="41.3" height="41.3" fill="#a2d5f2"/><polygon points="660.8,330.4 660.8,371.7 619.5,371.7" fill="#40a8c4"/><rect x="578.2" y="371.7" width="41.3" height="41.3" fill="#a2d5f2"/><polygon points="619.5,371.7 619.5,413 578.2,413" fill="#a2d5f2"/><rect x="619.5" y="371.7" width="41.3" height="41.3" fill="#a2d5f2"/><polygon points="619.5,371.7 660.8,371.7 660.8,413" fill="#40a8c4"/><rect x="660.8" y="330.4" width="82.6" height="82.6" fill="#ffffff"/><rect x="660.8" y="330.4" width="41.3" height="41.3" fill="#40a8c4"/><polygon points="660.8,330.4 702.0999999999999,330.4 660.8,371.7" fill="#a2d5f2"/><rect x="702.1" y="330.4" width="41.3" height="41.3" fill="#40a8c4"/><polygon points="702.1,330.4 743.4,330.4 702.1,371.7" fill="#a2d5f2"/><rect x="660.8" y="371.7" width="41.3" height="41.3" fill="#a2d5f2"/><polygon points="660.8,371.7 702.0999999999999,371.7 660.8,413" fill="#40a8c4"/><rect x="702.1" y="371.7" width="41.3" height="41.3" fill="#40a8c4"/><polygon points="702.1,371.7 743.4,413 702.1,413" fill="#a2d5f2"/><rect x="743.4" y="330.4" width="82.6" height="82.6" fill="#40a8c4"/><polygon points="743.4,330.4 826,330.4 743.4,413" fill="#40a8c4"/><rect x="826" y="330.4" width="82.6" height="82.6" fill="#ffffff"/><rect x="826" y="330.4" width="41.3" height="41.3" fill="#40a8c4"/><polygon points="826,330.4 867.3,371.7 826,371.7" fill="#a2d5f2"/><rect x="867.3" y="330.4" width="41.3" height="41.3" fill="#40a8c4"/><polygon points="908.5999999999999,330.4 908.5999999999999,371.7 867.3,371.7" fill="#40a8c4"/><rect x="826" y="371.7" width="41.3" height="41.3" fill="#a2d5f2"/><polygon points="826,371.7 867.3,371.7 826,413" fill="#a2d5f2"/><rect x="867.3" y="371.7" width="41.3" height="41.3" fill="#40a8c4"/><polygon points="867.3,371.7 908.5999999999999,413 867.3,413" fill="#40a8c4"/><rect x="908.5999999999999" y="330.4" width="82.6" height="82.6" fill="#ffffff"/><rect x="908.6" y="330.4" width="41.3" height="41.3" fill="#40a8c4"/><polygon points="908.6,330.4 949.9,330.4 908.6,371.7" fill="#40a8c4"/><rect x="949.9" y="330.4" width="41.3" height="41.3" fill="#40a8c4"/><polygon points="991.1999999999999,330.4 991.1999999999999,371.7 949.9,371.7" fill="#a2d5f2"/><rect x="908.6" y="371.7" width="41.3" height="41.3" fill="#a2d5f2"/><polygon points="949.9,371.7 949.9,413 908.6,413" fill="#40a8c4"/><rect x="949.9" y="371.7" width="41.3" height="41.3" fill="#40a8c4"/><polygon points="991.1999999999999,371.7 991.1999999999999,413 949.9,413" fill="#a2d5f2"/><rect x="991.2" y="330.4" width="82.6" height="82.6" fill="#a2d5f2"/><polygon points="991.2,330.4 1073.8,413 991.2,413" fill="#a2d5f2"/><rect x="1073.8" y="330.4" width="82.6" height="82.6" fill="#ffffff"/><rect x="1073.8" y="330.4" width="41.3" height="41.3" fill="#40a8c4"/><polygon points="1115.1,330.4 1115.1,371.7 1073.8,371.7" fill="#40a8c4"/><rect x="1115.1" y="330.4" width="41.3" height="41.3" fill="#40a8c4"/><polygon points="1115.1,330.4 1156.3999999999999,330.4 1156.3999999999999,371.7" fill="#40a8c4"/><rect x="1073.8" y="371.7" width="41.3" height="41.3" fill="#40a8c4"/><polygon points="1073.8,371.7 1115.1,371.7 1115.1,413" fill="#40a8c4"/><rect x="1115.1" y="371.7" width="41.3" height="41.3" fill="#40a8c4"/><polygon points="1115.1,371.7 1156.3999999999999,413 1115.1,413" fill="#40a8c4"/><rect x="1156.4" y="330.4" width="82.6" height="82.6" fill="#a2d5f2"/><polygon points="1156.4,330.4 1239,413 1156.4,413" fill="#a2d5f2"/><rect x="1239" y="330.4" width="82.6" height="82.6" fill="#ffffff"/><rect x="1239" y="330.4" width="41.3" height="41.3" fill="#a2d5f2"/><polygon points="1280.3,330.4 1280.3,371.7 1239,371.7" fill="#a2d5f2"/><rect x="1280.3" y="330.4" width="41.3" height="41.3" fill="#a2d5f2"/><polygon points="1280.3,330.4 1321.6,330.4 1321.6,371.7" fill="#40a8c4"/><rect x="1239" y="371.7" width="41.3" height="41.3" fill="#40a8c4"/><polygon points="1239,371.7 1280.3,371.7 1239,413" fill="#40a8c4"/><rect x="1280.3" y="371.7" width="41.3" height="41.3" fill="#40a8c4"/><polygon points="1280.3,371.7 1321.6,413 1280.3,413" fill="#a2d5f2"/><rect x="0" y="413" width="82.6" height="82.6" fill="#a2d5f2"/><polygon points="0,413 82.6,413 82.6,495.6" fill="#a2d5f2"/><rect x="82.6" y="413" width="82.6" height="82.6" fill="#a2d5f2"/><polygon points="82.6,413 165.2,495.6 82.6,495.6" fill="#a2d5f2"/><rect x="165.2" y="413" width="82.6" height="82.6" fill="#ffffff"/><rect x="165.2" y="413" width="41.3" height="41.3" fill="#40a8c4"/><polygon points="165.2,413 206.5,413 165.2,454.3" fill="#a2d5f2"/><rect x="206.5" y="413" width="41.3" height="41.3" fill="#a2d5f2"/><polygon points="206.5,413 247.8,454.3 206.5,454.3" fill="#a2d5f2"/><rect x="165.2" y="454.3" width="41.3" height="41.3" fill="#a2d5f2"/><polygon points="206.5,454.3 206.5,495.6 165.2,495.6" fill="#40a8c4"/><rect x="206.5" y="454.3" width="41.3" height="41.3" fill="#40a8c4"/><polygon points="206.5,454.3 247.8,454.3 247.8,495.6" fill="#40a8c4"/><rect x="247.8" y="413" width="82.6" height="82.6" fill="#40a8c4"/><polygon points="330.4,413 330.4,495.6 247.8,495.6" fill="#40a8c4"/><rect x="330.4" y="413" width="82.6" height="82.6" fill="#ffffff"/><rect x="330.4" y="413" width="41.3" height="41.3" fill="#40a8c4"/><polygon points="330.4,413 371.7,454.3 330.4,454.3" fill="#40a8c4"/><rect x="371.7" y="413" width="41.3" height="41.3" fill="#40a8c4"/><polygon points="371.7,413 413,454.3 371.7,454.3" fill="#40a8c4"/><rect x="330.4" y="454.3" width="41.3" height="41.3" fill="#40a8c4"/><polygon points="330.4,454.3 371.7,495.6 330.4,495.6" fill="#a2d5f2"/><rect x="371.7" y="454.3" width="41.3" height="41.3" fill="#40a8c4"/><polygon points="413,454.3 413,495.6 371.7,495.6" fill="#40a8c4"/><rect x="413" y="413" width="82.6" height="82.6" fill="#ffffff"/><rect x="413" y="413" width="41.3" height="41.3" fill="#a2d5f2"/><polygon points="454.3,413 454.3,454.3 413,454.3" fill="#40a8c4"/><rect x="454.3" y="413" width="41.3" height="41.3" fill="#a2d5f2"/><polygon points="454.3,413 495.6,413 454.3,454.3" fill="#40a8c4"/><rect x="413" y="454.3" width="41.3" height="41.3" fill="#a2d5f2"/><polygon points="413,454.3 454.3,495.6 413,495.6" fill="#a2d5f2"/><rect x="454.3" y="454.3" width="41.3" height="41.3" fill="#a2d5f2"/><polygon points="454.3,454.3 495.6,454.3 454.3,495.6" fill="#40a8c4"/><rect x="495.59999999999997" y="413" width="82.6" height="82.6" fill="#ffffff"/><rect x="495.6" y="413" width="41.3" height="41.3" fill="#40a8c4"/><polygon points="495.6,413 536.9,413 495.6,454.3" fill="#a2d5f2"/><rect x="536.9" y="413" width="41.3" height="41.3" fill="#40a8c4"/><polygon points="536.9,413 578.1999999999999,454.3 536.9,454.3" fill="#a2d5f2"/><rect x="495.6" y="454.3" width="41.3" height="41.3" fill="#40a8c4"/><polygon points="495.6,454.3 536.9,454.3 536.9,495.6" fill="#a2d5f2"/><rect x="536.9" y="454.3" width="41.3" height="41.3" fill="#40a8c4"/><polygon points="536.9,454.3 578.1999999999999,454.3 578.1999999999999,495.6" fill="#40a8c4"/><rect x="578.1999999999999" y="413" width="82.6" height="82.6" fill="#ffffff"/><rect x="578.2" y="413" width="41.3" height="41.3" fill="#40a8c4"/><polygon points="578.2,413 619.5,413 619.5,454.3" fill="#a2d5f2"/><rect x="619.5" y="413" width="41.3" height="41.3" fill="#a2d5f2"/><polygon points="660.8,413 660.8,454.3 619.5,454.3" fill="#a2d5f2"/><rect x="578.2" y="454.3" width="41.3" height="41.3" fill="#40a8c4"/><polygon points="578.2,454.3 619.5,454.3 619.5,495.6" fill="#40a8c4"/><rect x="619.5" y="454.3" width="41.3" height="41.3" fill="#a2d5f2"/><polygon points="619.5,454.3 660.8,454.3 660.8,495.6" fill="#a2d5f2"/><rect x="660.8" y="413" width="82.6" height="82.6" fill="#ffffff"/><rect x="660.8" y="413" width="41.3" height="41.3" fill="#a2d5f2"/><polygon points="660.8,413 702.0999999999999,413 702.0999999999999,454.3" fill="#a2d5f2"/><rect x="702.1" y="413" width="41.3" height="41.3" fill="#40a8c4"/><polygon points="743.4,413 743.4,454.3 702.1,454.3" fill="#a2d5f2"/><rect x="660.8" y="454.3" width="41.3" height="41.3" fill="#a2d5f2"/><polygon points="660.8,454.3 702.0999999999999,495.6 660.8,495.6" fill="#a2d5f2"/><rect x="702.1" y="454.3" width="41.3" height="41.3" fill="#a2d5f2"/><polygon points="702.1,454.3 743.4,495.6 702.1,495.6" fill="#40a8c4"/><rect x="743.4" y="413" width="82.6" height="82.6" fill="#40a8c4"/><polygon points="826,413 826,495.6 743.4,495.6" fill="#a2d5f2"/><rect x="826" y="413" width="82.6" height="82.6" fill="#ffffff"/><rect x="826" y="413" width="41.3" height="41.3" fill="#40a8c4"/><polygon points="826,413 867.3,454.3 826,454.3" fill="#40a8c4"/><rect x="867.3" y="413" width="41.3" height="41.3" fill="#a2d5f2"/><polygon points="867.3,413 908.5999999999999,413 908.5999999999999,454.3" fill="#40a8c4"/><rect x="826" y="454.3" width="41.3" height="41.3" fill="#40a8c4"/><polygon points="826,454.3 867.3,454.3 867.3,495.6" fill="#a2d5f2"/><rect x="867.3" y="454.3" width="41.3" height="41.3" fill="#40a8c4"/><polygon points="867.3,454.3 908.5999999999999,454.3 867.3,495.6" fill="#a2d5f2"/><rect x="908.6" y="413" width="82.6" height="82.6" fill="#40a8c4"/><polygon points="908.6,413 991.2,413 908.6,495.6" fill="#a2d5f2"/><rect x="991.2" y="413" width="82.6" height="82.6" fill="#40a8c4"/><polygon points="991.2,413 1073.8,495.6 991.2,495.6" fill="#a2d5f2"/><rect x="1073.8" y="413" width="82.6" height="82.6" fill="#ffffff"/><rect x="1073.8" y="413" width="41.3" height="41.3" fill="#a2d5f2"/><polygon points="1115.1,413 1115.1,454.3 1073.8,454.3" fill="#40a8c4"/><rect x="1115.1" y="413" width="41.3" height="41.3" fill="#a2d5f2"/><polygon points="1156.3999999999999,413 1156.3999999999999,454.3 1115.1,454.3" fill="#a2d5f2"/><rect x="1073.8" y="454.3" width="41.3" height="41.3" fill="#40a8c4"/><polygon points="1115.1,454.3 1115.1,495.6 1073.8,495.6" fill="#a2d5f2"/><rect x="1115.1" y="454.3" width="41.3" height="41.3" fill="#a2d5f2"/><polygon points="1115.1,454.3 1156.3999999999999,454.3 1115.1,495.6" fill="#40a8c4"/><rect x="1156.3999999999999" y="413" width="82.6" height="82.6" fill="#ffffff"/><rect x="1156.4" y="413" width="41.3" height="41.3" fill="#a2d5f2"/><polygon points="1156.4,413 1197.7,454.3 1156.4,454.3" fill="#a2d5f2"/><rect x="1197.7" y="413" width="41.3" height="41.3" fill="#40a8c4"/><polygon points="1197.7,413 1239,454.3 1197.7,454.3" fill="#a2d5f2"/><rect x="1156.4" y="454.3" width="41.3" height="41.3" fill="#a2d5f2"/><polygon points="1197.7,454.3 1197.7,495.6 1156.4,495.6" fill="#a2d5f2"/><rect x="1197.7" y="454.3" width="41.3" height="41.3" fill="#40a8c4"/><polygon points="1197.7,454.3 1239,454.3 1239,495.6" fill="#40a8c4"/><rect x="1239" y="413" width="82.6" height="82.6" fill="#ffffff"/><rect x="1239" y="413" width="41.3" height="41.3" fill="#40a8c4"/><polygon points="1239,413 1280.3,413 1280.3,454.3" fill="#40a8c4"/><rect x="1280.3" y="413" width="41.3" height="41.3" fill="#a2d5f2"/><polygon points="1280.3,413 1321.6,413 1280.3,454.3" fill="#40a8c4"/><rect x="1239" y="454.3" width="41.3" height="41.3" fill="#a2d5f2"/><polygon points="1239,454.3 1280.3,454.3 1280.3,495.6" fill="#40a8c4"/><rect x="1280.3" y="454.3" width="41.3" height="41.3" fill="#a2d5f2"/><polygon points="1321.6,454.3 1321.6,495.6 1280.3,495.6" fill="#40a8c4"/><rect x="0" y="495.59999999999997" width="82.6" height="82.6" fill="#ffffff"/><rect x="0" y="495.6" width="41.3" height="41.3" fill="#a2d5f2"/><polygon points="0,495.6 41.3,495.6 0,536.9" fill="#a2d5f2"/><rect x="41.3" y="495.6" width="41.3" height="41.3" fill="#40a8c4"/><polygon points="41.3,495.6 82.6,495.6 41.3,536.9" fill="#a2d5f2"/><rect x="0" y="536.9" width="41.3" height="41.3" fill="#40a8c4"/><polygon points="0,536.9 41.3,536.9 0,578.1999999999999" fill="#a2d5f2"/><rect x="41.3" y="536.9" width="41.3" height="41.3" fill="#40a8c4"/><polygon points="41.3,536.9 82.6,578.1999999999999 41.3,578.1999999999999" fill="#40a8c4"/><rect x="82.6" y="495.59999999999997" width="82.6" height="82.6" fill="#ffffff"/><rect x="82.6" y="495.6" width="41.3" height="41.3" fill="#a2d5f2"/><polygon points="82.6,495.6 123.89999999999999,536.9 82.6,536.9" fill="#40a8c4"/><rect x="123.9" y="495.6" width="41.3" height="41.3" fill="#40a8c4"/><polygon points="123.9,495.6 165.2,536.9 123.9,536.9" fill="#a2d5f2"/><rect x="82.6" y="536.9" width="41.3" height="41.3" fill="#40a8c4"/><polygon points="82.6,536.9 123.89999999999999,536.9 123.89999999999999,578.1999999999999" fill="#40a8c4"/><rect x="123.9" y="536.9" width="41.3" height="41.3" fill="#a2d5f2"/><polygon points="123.9,536.9 165.2,536.9 123.9,578.1999999999999" fill="#40a8c4"/><rect x="165.2" y="495.6" width="82.6" height="82.6" fill="#a2d5f2"/><polygon points="165.2,495.6 247.79999999999998,578.2 165.2,578.2" fill="#40a8c4"/><rect x="247.79999999999998" y="495.59999999999997" width="82.6" height="82.6" fill="#ffffff"/><rect x="247.8" y="495.6" width="41.3" height="41.3" fill="#40a8c4"/><polygon points="247.8,495.6 289.1,495.6 247.8,536.9" fill="#40a8c4"/><rect x="289.1" y="495.6" width="41.3" height="41.3" fill="#40a8c4"/><polygon points="289.1,495.6 330.40000000000003,495.6 289.1,536.9" fill="#40a8c4"/><rect x="247.8" y="536.9" width="41.3" height="41.3" fill="#a2d5f2"/><polygon points="247.8,536.9 289.1,536.9 247.8,578.1999999999999" fill="#40a8c4"/><rect x="289.1" y="536.9" width="41.3" height="41.3" fill="#40a8c4"/><polygon points="289.1,536.9 330.40000000000003,536.9 330.40000000000003,578.1999999999999" fill="#a2d5f2"/><rect x="330.4" y="495.6" width="82.6" height="82.6" fill="#40a8c4"/><polygon points="330.4,495.6 413,578.2 330.4,578.2" fill="#a2d5f2"/><rect x="413" y="495.6" width="82.6" height="82.6" fill="#a2d5f2"/><polygon points="413,495.6 495.6,578.2 413,578.2" fill="#a2d5f2"/><rect x="495.6" y="495.6" width="82.6" height="82.6" fill="#a2d5f2"/><polygon points="495.6,495.6 578.2,495.6 495.6,578.2" fill="#a2d5f2"/><rect x="578.1999999999999" y="495.59999999999997" width="82.6" height="82.6" fill="#ffffff"/><rect x="578.2" y="495.6" width="41.3" height="41.3" fill="#40a8c4"/><polygon points="619.5,495.6 619.5,536.9 578.2,536.9" fill="#a2d5f2"/><rect x="619.5" y="495.6" width="41.3" height="41.3" fill="#a2d5f2"/><polygon points="619.5,495.6 660.8,536.9 619.5,536.9" fill="#40a8c4"/><rect x="578.2" y="536.9" width="41.3" height="41.3" fill="#40a8c4"/><polygon points="619.5,536.9 619.5,578.1999999999999 578.2,578.1999999999999" fill="#a2d5f2"/><rect x="619.5" y="536.9" width="41.3" height="41.3" fill="#a2d5f2"/><polygon points="619.5,536.9 660.8,536.9 619.5,578.1999999999999" fill="#a2d5f2"/><rect x="660.8" y="495.6" width="82.6" height="82.6" fill="#a2d5f2"/><polygon points="660.8,495.6 743.4,578.2 660.8,578.2" fill="#40a8c4"/><rect x="743.4" y="495.59999999999997" width="82.6" height="82.6" fill="#ffffff"/><rect x="743.4" y="495.6" width="41.3" height="41.3" fill="#40a8c4"/><polygon points="784.6999999999999,495.6 784.6999999999999,536.9 743.4,536.9" fill="#a2d5f2"/><rect x="784.7" y="495.6" width="41.3" height="41.3" fill="#40a8c4"/><polygon points="784.7,495.6 826,495.6 826,536.9" fill="#40a8c4"/><rect x="743.4" y="536.9" width="41.3" height="41.3" fill="#40a8c4"/><polygon points="743.4,536.9 784.6999999999999,536.9 743.4,578.1999999999999" fill="#40a8c4"/><rect x="784.7" y="536.9" width="41.3" height="41.3" fill="#a2d5f2"/><polygon points="826,536.9 826,578.1999999999999 784.7,578.1999999999999" fill="#a2d5f2"/><rect x="826" y="495.6" width="82.6" height="82.6" fill="#a2d5f2"/><polygon points="826,495.6 908.6,495.6 826,578.2" fill="#a2d5f2"/><rect x="908.6" y="495.6" width="82.6" height="82.6" fill="#40a8c4"/><polygon points="991.2,495.6 991.2,578.2 908.6,578.2" fill="#40a8c4"/><rect x="991.2" y="495.6" width="82.6" height="82.6" fill="#40a8c4"/><polygon points="1073.8,495.6 1073.8,578.2 991.2,578.2" fill="#40a8c4"/><rect x="1073.8" y="495.59999999999997" width="82.6" height="82.6" fill="#ffffff"/><rect x="1073.8" y="495.6" width="41.3" height="41.3" fill="#a2d5f2"/><polygon points="1115.1,495.6 1115.1,536.9 1073.8,536.9" fill="#40a8c4"/><rect x="1115.1" y="495.6" width="41.3" height="41.3" fill="#40a8c4"/><polygon points="1115.1,495.6 1156.3999999999999,536.9 1115.1,536.9" fill="#a2d5f2"/><rect x="1073.8" y="536.9" width="41.3" height="41.3" fill="#a2d5f2"/><polygon points="1073.8,536.9 1115.1,536.9 1073.8,578.1999999999999" fill="#a2d5f2"/><rect x="1115.1" y="536.9" width="41.3" height="41.3" fill="#a2d5f2"/><polygon points="1115.1,536.9 1156.3999999999999,578.1999999999999 1115.1,578.1999999999999" fill="#40a8c4"/><rect x="1156.4" y="495.6" width="82.6" height="82.6" fill="#40a8c4"/><polygon points="1156.4,495.6 1239,495.6 1156.4,578.2" fill="#a2d5f2"/><rect x="1239" y="495.6" width="82.6" height="82.6" fill="#40a8c4"/><polygon points="1239,495.6 1321.6,495.6 1239,578.2" fill="#40a8c4"/><rect x="0" y="578.1999999999999" width="82.6" height="82.6" fill="#ffffff"/><rect x="0" y="578.2" width="41.3" height="41.3" fill="#a2d5f2"/><polygon points="0,578.2 41.3,578.2 41.3,619.5" fill="#40a8c4"/><rect x="41.3" y="578.2" width="41.3" height="41.3" fill="#a2d5f2"/><polygon points="41.3,578.2 82.6,619.5 41.3,619.5" fill="#40a8c4"/><rect x="0" y="619.5" width="41.3" height="41.3" fill="#40a8c4"/><polygon points="0,619.5 41.3,619.5 0,660.8" fill="#40a8c4"/><rect x="41.3" y="619.5" width="41.3" height="41.3" fill="#40a8c4"/><polygon points="41.3,619.5 82.6,619.5 41.3,660.8" fill="#40a8c4"/><rect x="82.6" y="578.2" width="82.6" height="82.6" fill="#40a8c4"/><polygon points="165.2,578.2 165.2,660.8000000000001 82.6,660.8000000000001" fill="#40a8c4"/><rect x="165.2" y="578.2" width="82.6" height="82.6" fill="#40a8c4"/><polygon points="165.2,578.2 247.79999999999998,578.2 247.79999999999998,660.8000000000001" fill="#a2d5f2"/><rect x="247.8" y="578.2" width="82.6" height="82.6" fill="#a2d5f2"/><polygon points="330.4,578.2 330.4,660.8000000000001 247.8,660.8000000000001" fill="#a2d5f2"/><rect x="330.4" y="578.1999999999999" width="82.6" height="82.6" fill="#ffffff"/><rect x="330.4" y="578.2" width="41.3" height="41.3" fill="#a2d5f2"/><polygon points="330.4,578.2 371.7,578.2 330.4,619.5" fill="#a2d5f2"/><rect x="371.7" y="578.2" width="41.3" height="41.3" fill="#a2d5f2"/><polygon points="413,578.2 413,619.5 371.7,619.5" fill="#40a8c4"/><rect x="330.4" y="619.5" width="41.3" height="41.3" fill="#40a8c4"/><polygon points="371.7,619.5 371.7,660.8 330.4,660.8" fill="#40a8c4"/><rect x="371.7" y="619.5" width="41.3" height="41.3" fill="#40a8c4"/><polygon points="371.7,619.5 413,660.8 371.7,660.8" fill="#40a8c4"/><rect x="413" y="578.2" width="82.6" height="82.6" fill="#a2d5f2"/><polygon points="413,578.2 495.6,660.8000000000001 413,660.8000000000001" fill="#a2d5f2"/><rect x="495.59999999999997" y="578.1999999999999" width="82.6" height="82.6" fill="#ffffff"/><rect x="495.6" y="578.2" width="41.3" height="41.3" fill="#40a8c4"/><polygon points="495.6,578.2 536.9,578.2 495.6,619.5" fill="#40a8c4"/><rect x="536.9" y="578.2" width="41.3" height="41.3" fill="#a2d5f2"/><polygon points="536.9,578.2 578.1999999999999,578.2 536.9,619.5" fill="#a2d5f2"/><rect x="495.6" y="619.5" width="41.3" height="41.3" fill="#40a8c4"/><polygon points="495.6,619.5 536.9,619.5 495.6,660.8" fill="#a2d5f2"/><rect x="536.9" y="619.5" width="41.3" height="41.3" fill="#40a8c4"/><polygon points="578.1999999999999,619.5 578.1999999999999,660.8 536.9,660.8" fill="#40a8c4"/><rect x="578.2" y="578.2" width="82.6" height="82.6" fill="#a2d5f2"/><polygon points="660.8000000000001,578.2 660.8000000000001,660.8000000000001 578.2,660.8000000000001" fill="#a2d5f2"/><rect x="660.8" y="578.2" width="82.6" height="82.6" fill="#40a8c4"/><polygon points="660.8,578.2 743.4,578.2 743.4,660.8000000000001" fill="#a2d5f2"/><rect x="743.4" y="578.2" width="82.6" height="82.6" fill="#a2d5f2"/><polygon points="743.4,578.2 826,660.8000000000001 743.4,660.8000000000001" fill="#a2d5f2"/><rect x="826" y="578.2" width="82.6" height="82.6" fill="#40a8c4"/><polygon points="826,578.2 908.6,660.8000000000001 826,660.8000000000001" fill="#a2d5f2"/><rect x="908.5999999999999" y="578.1999999999999" width="82.6" height="82.6" fill="#ffffff"/><rect x="908.6" y="578.2" width="41.3" height="41.3" fill="#a2d5f2"/><polygon points="908.6,578.2 949.9,619.5 908.6,619.5" fill="#40a8c4"/><rect x="949.9" y="578.2" width="41.3" height="41.3" fill="#a2d5f2"/><polygon points="949.9,578.2 991.1999999999999,619.5 949.9,619.5" fill="#40a8c4"/><rect x="908.6" y="619.5" width="41.3" height="41.3" fill="#a2d5f2"/><polygon points="908.6,619.5 949.9,619.5 908.6,660.8" fill="#a2d5f2"/><rect x="949.9" y="619.5" width="41.3" height="41.3" fill="#40a8c4"/><polygon points="949.9,619.5 991.1999999999999,619.5 949.9,660.8" fill="#a2d5f2"/><rect x="991.2" y="578.2" width="82.6" height="82.6" fill="#a2d5f2"/><polygon points="991.2,578.2 1073.8,578.2 991.2,660.8000000000001" fill="#40a8c4"/><rect x="1073.8" y="578.1999999999999" width="82.6" height="82.6" fill="#ffffff"/><rect x="1073.8" y="578.2" width="41.3" height="41.3" fill="#40a8c4"/><polygon points="1115.1,578.2 1115.1,619.5 1073.8,619.5" fill="#40a8c4"/><rect x="1115.1" y="578.2" width="41.3" height="41.3" fill="#a2d5f2"/><polygon points="1115.1,578.2 1156.3999999999999,619.5 1115.1,619.5" fill="#40a8c4"/><rect x="1073.8" y="619.5" width="41.3" height="41.3" fill="#a2d5f2"/><polygon points="1115.1,619.5 1115.1,660.8 1073.8,660.8" fill="#a2d5f2"/><rect x="1115.1" y="619.5" width="41.3" height="41.3" fill="#40a8c4"/><polygon points="1156.3999999999999,619.5 1156.3999999999999,660.8 1115.1,660.8" fill="#40a8c4"/><rect x="1156.3999999999999" y="578.1999999999999" width="82.6" height="82.6" fill="#ffffff"/><rect x="1156.4" y="578.2" width="41.3" height="41.3" fill="#40a8c4"/><polygon points="1197.7,578.2 1197.7,619.5 1156.4,619.5" fill="#40a8c4"/><rect x="1197.7" y="578.2" width="41.3" height="41.3" fill="#a2d5f2"/><polygon points="1197.7,578.2 1239,578.2 1197.7,619.5" fill="#40a8c4"/><rect x="1156.4" y="619.5" width="41.3" height="41.3" fill="#40a8c4"/><polygon points="1156.4,619.5 1197.7,619.5 1156.4,660.8" fill="#a2d5f2"/><rect x="1197.7" y="619.5" width="41.3" height="41.3" fill="#40a8c4"/><polygon points="1197.7,619.5 1239,619.5 1197.7,660.8" fill="#a2d5f2"/><rect x="1239" y="578.2" width="82.6" height="82.6" fill="#40a8c4"/><polygon points="1239,578.2 1321.6,578.2 1239,660.8000000000001" fill="#40a8c4"/><rect x="0" y="660.8" width="82.6" height="82.6" fill="#ffffff"/><rect x="0" y="660.8" width="41.3" height="41.3" fill="#40a8c4"/><polygon points="0,660.8 41.3,660.8 41.3,702.0999999999999" fill="#a2d5f2"/><rect x="41.3" y="660.8" width="41.3" height="41.3" fill="#40a8c4"/><polygon points="41.3,660.8 82.6,702.0999999999999 41.3,702.0999999999999" fill="#a2d5f2"/><rect x="0" y="702.1" width="41.3" height="41.3" fill="#40a8c4"/><polygon points="0,702.1 41.3,702.1 0,743.4" fill="#a2d5f2"/><rect x="41.3" y="702.1" width="41.3" height="41.3" fill="#a2d5f2"/><polygon points="41.3,702.1 82.6,743.4 41.3,743.4" fill="#40a8c4"/><rect x="82.6" y="660.8" width="82.6" height="82.6" fill="#40a8c4"/><polygon points="82.6,660.8 165.2,660.8 82.6,743.4" fill="#40a8c4"/><rect x="165.2" y="660.8" width="82.6" height="82.6" fill="#ffffff"/><rect x="165.2" y="660.8" width="41.3" height="41.3" fill="#a2d5f2"/><polygon points="165.2,660.8 206.5,702.0999999999999 165.2,702.0999999999999" fill="#40a8c4"/><rect x="206.5" y="660.8" width="41.3" height="41.3" fill="#40a8c4"/><polygon points="206.5,660.8 247.8,660.8 247.8,702.0999999999999" fill="#40a8c4"/><rect x="165.2" y="702.1" width="41.3" height="41.3" fill="#a2d5f2"/><polygon points="165.2,702.1 206.5,743.4 165.2,743.4" fill="#a2d5f2"/><rect x="206.5" y="702.1" width="41.3" height="41.3" fill="#a2d5f2"/><polygon points="206.5,702.1 247.8,702.1 206.5,743.4" fill="#a2d5f2"/><rect x="247.79999999999998" y="660.8" width="82.6" height="82.6" fill="#ffffff"/><rect x="247.8" y="660.8" width="41.3" height="41.3" fill="#40a8c4"/><polygon points="289.1,660.8 289.1,702.0999999999999 247.8,702.0999999999999" fill="#a2d5f2"/><rect x="289.1" y="660.8" width="41.3" height="41.3" fill="#a2d5f2"/><polygon points="289.1,660.8 330.40000000000003,660.8 289.1,702.0999999999999" fill="#a2d5f2"/><rect x="247.8" y="702.1" width="41.3" height="41.3" fill="#a2d5f2"/><polygon points="247.8,702.1 289.1,702.1 289.1,743.4" fill="#40a8c4"/><rect x="289.1" y="702.1" width="41.3" height="41.3" fill="#a2d5f2"/><polygon points="330.40000000000003,702.1 330.40000000000003,743.4 289.1,743.4" fill="#a2d5f2"/><rect x="330.4" y="660.8" width="82.6" height="82.6" fill="#40a8c4"/><polygon points="330.4,660.8 413,743.4 330.4,743.4" fill="#a2d5f2"/><rect x="413" y="660.8" width="82.6" height="82.6" fill="#ffffff"/><rect x="413" y="660.8" width="41.3" height="41.3" fill="#a2d5f2"/><polygon points="413,660.8 454.3,660.8 454.3,702.0999999999999" fill="#a2d5f2"/><rect x="454.3" y="660.8" width="41.3" height="41.3" fill="#a2d5f2"/><polygon points="454.3,660.8 495.6,702.0999999999999 454.3,702.0999999999999" fill="#a2d5f2"/><rect x="413" y="702.1" width="41.3" height="41.3" fill="#a2d5f2"/><polygon points="454.3,702.1 454.3,743.4 413,743.4" fill="#40a8c4"/><rect x="454.3" y="702.1" width="41.3" height="41.3" fill="#40a8c4"/><polygon points="454.3,702.1 495.6,702.1 454.3,743.4" fill="#40a8c4"/><rect x="495.6" y="660.8" width="82.6" height="82.6" fill="#a2d5f2"/><polygon points="495.6,660.8 578.2,743.4 495.6,743.4" fill="#40a8c4"/><rect x="578.2" y="660.8" width="82.6" height="82.6" fill="#a2d5f2"/><polygon points="578.2,660.8 660.8000000000001,660.8 578.2,743.4" fill="#40a8c4"/><rect x="660.8" y="660.8" width="82.6" height="82.6" fill="#ffffff"/><rect x="660.8" y="660.8" width="41.3" height="41.3" fill="#a2d5f2"/><polygon points="702.0999999999999,660.8 702.0999999999999,702.0999999999999 660.8,702.0999999999999" fill="#a2d5f2"/><rect x="702.1" y="660.8" width="41.3" height="41.3" fill="#40a8c4"/><polygon points="702.1,660.8 743.4,702.0999999999999 702.1,702.0999999999999" fill="#a2d5f2"/><rect x="660.8" y="702.1" width="41.3" height="41.3" fill="#a2d5f2"/><polygon points="660.8,702.1 702.0999999999999,702.1 660.8,743.4" fill="#a2d5f2"/><rect x="702.1" y="702.1" width="41.3" height="41.3" fill="#a2d5f2"/><polygon points="743.4,702.1 743.4,743.4 702.1,743.4" fill="#a2d5f2"/><rect x="743.4" y="660.8" width="82.6" height="82.6" fill="#ffffff"/><rect x="743.4" y="660.8" width="41.3" height="41.3" fill="#a2d5f2"/><polygon points="784.6999999999999,660.8 784.6999999999999,702.0999999999999 743.4,702.0999999999999" fill="#a2d5f2"/><rect x="784.7" y="660.8" width="41.3" height="41.3" fill="#a2d5f2"/><polygon points="826,660.8 826,702.0999999999999 784.7,702.0999999999999" fill="#40a8c4"/><rect x="743.4" y="702.1" width="41.3" height="41.3" fill="#40a8c4"/><polygon points="743.4,702.1 784.6999999999999,743.4 743.4,743.4" fill="#a2d5f2"/><rect x="784.7" y="702.1" width="41.3" height="41.3" fill="#a2d5f2"/><polygon points="784.7,702.1 826,702.1 826,743.4" fill="#a2d5f2"/><rect x="826" y="660.8" width="82.6" height="82.6" fill="#ffffff"/><rect x="826" y="660.8" width="41.3" height="41.3" fill="#40a8c4"/><polygon points="826,660.8 867.3,702.0999999999999 826,702.0999999999999" fill="#40a8c4"/><rect x="867.3" y="660.8" width="41.3" height="41.3" fill="#a2d5f2"/><polygon points="867.3,660.8 908.5999999999999,660.8 867.3,702.0999999999999" fill="#a2d5f2"/><rect x="826" y="702.1" width="41.3" height="41.3" fill="#a2d5f2"/><polygon points="826,702.1 867.3,702.1 867.3,743.4" fill="#a2d5f2"/><rect x="867.3" y="702.1" width="41.3" height="41.3" fill="#40a8c4"/><polygon points="908.5999999999999,702.1 908.5999999999999,743.4 867.3,743.4" fill="#a2d5f2"/><rect x="908.6" y="660.8" width="82.6" height="82.6" fill="#40a8c4"/><polygon points="908.6,660.8 991.2,660.8 991.2,743.4" fill="#a2d5f2"/><rect x="991.2" y="660.8" width="82.6" height="82.6" fill="#40a8c4"/><polygon points="1073.8,660.8 1073.8,743.4 991.2,743.4" fill="#a2d5f2"/><rect x="1073.8" y="660.8" width="82.6" height="82.6" fill="#ffffff"/><rect x="1073.8" y="660.8" width="41.3" height="41.3" fill="#a2d5f2"/><polygon points="1073.8,660.8 1115.1,660.8 1115.1,702.0999999999999" fill="#a2d5f2"/><rect x="1115.1" y="660.8" width="41.3" height="41.3" fill="#40a8c4"/><polygon points="1115.1,660.8 1156.3999999999999,660.8 1156.3999999999999,702.0999999999999" fill="#a2d5f2"/><rect x="1073.8" y="702.1" width="41.3" height="41.3" fill="#a2d5f2"/><polygon points="1073.8,702.1 1115.1,743.4 1073.8,743.4" fill="#a2d5f2"/><rect x="1115.1" y="702.1" width="41.3" height="41.3" fill="#40a8c4"/><polygon points="1156.3999999999999,702.1 1156.3999999999999,743.4 1115.1,743.4" fill="#40a8c4"/><rect x="1156.3999999999999" y="660.8" width="82.6" height="82.6" fill="#ffffff"/><rect x="1156.4" y="660.8" width="41.3" height="41.3" fill="#a2d5f2"/><polygon points="1156.4,660.8 1197.7,702.0999999999999 1156.4,702.0999999999999" fill="#a2d5f2"/><rect x="1197.7" y="660.8" width="41.3" height="41.3" fill="#a2d5f2"/><polygon points="1239,660.8 1239,702.0999999999999 1197.7,702.0999999999999" fill="#a2d5f2"/><rect x="1156.4" y="702.1" width="41.3" height="41.3" fill="#40a8c4"/><polygon points="1156.4,702.1 1197.7,702.1 1156.4,743.4" fill="#40a8c4"/><rect x="1197.7" y="702.1" width="41.3" height="41.3" fill="#40a8c4"/><polygon points="1197.7,702.1 1239,702.1 1197.7,743.4" fill="#a2d5f2"/><rect x="1239" y="660.8" width="82.6" height="82.6" fill="#ffffff"/><rect x="1239" y="660.8" width="41.3" height="41.3" fill="#40a8c4"/><polygon points="1239,660.8 1280.3,702.0999999999999 1239,702.0999999999999" fill="#a2d5f2"/><rect x="1280.3" y="660.8" width="41.3" height="41.3" fill="#40a8c4"/><polygon points="1280.3,660.8 1321.6,660.8 1321.6,702.0999999999999" fill="#a2d5f2"/><rect x="1239" y="702.1" width="41.3" height="41.3" fill="#40a8c4"/><polygon points="1239,702.1 1280.3,702.1 1239,743.4" fill="#40a8c4"/><rect x="1280.3" y="702.1" width="41.3" height="41.3" fill="#40a8c4"/><polygon points="1280.3,702.1 1321.6,743.4 1280.3,743.4" fill="#40a8c4"/><rect x="0" y="743.4" width="82.6" height="82.6" fill="#ffffff"/><rect x="0" y="743.4" width="41.3" height="41.3" fill="#40a8c4"/><polygon points="41.3,743.4 41.3,784.6999999999999 0,784.6999999999999" fill="#40a8c4"/><rect x="41.3" y="743.4" width="41.3" height="41.3" fill="#40a8c4"/><polygon points="41.3,743.4 82.6,784.6999999999999 41.3,784.6999999999999" fill="#a2d5f2"/><rect x="0" y="784.7" width="41.3" height="41.3" fill="#40a8c4"/><polygon points="0,784.7 41.3,826 0,826" fill="#a2d5f2"/><rect x="41.3" y="784.7" width="41.3" height="41.3" fill="#40a8c4"/><polygon points="41.3,784.7 82.6,784.7 41.3,826" fill="#40a8c4"/><rect x="82.6" y="743.4" width="82.6" height="82.6" fill="#ffffff"/><rect x="82.6" y="743.4" width="41.3" height="41.3" fill="#40a8c4"/><polygon points="82.6,743.4 123.89999999999999,784.6999999999999 82.6,784.6999999999999" fill="#a2d5f2"/><rect x="123.9" y="743.4" width="41.3" height="41.3" fill="#a2d5f2"/><polygon points="123.9,743.4 165.2,784.6999999999999 123.9,784.6999999999999" fill="#a2d5f2"/><rect x="82.6" y="784.7" width="41.3" height="41.3" fill="#40a8c4"/><polygon points="82.6,784.7 123.89999999999999,784.7 123.89999999999999,826" fill="#a2d5f2"/><rect x="123.9" y="784.7" width="41.3" height="41.3" fill="#a2d5f2"/><polygon points="123.9,784.7 165.2,784.7 165.2,826" fill="#40a8c4"/><rect x="165.2" y="743.4" width="82.6" height="82.6" fill="#a2d5f2"/><polygon points="165.2,743.4 247.79999999999998,743.4 165.2,826" fill="#40a8c4"/><rect x="247.79999999999998" y="743.4" width="82.6" height="82.6" fill="#ffffff"/><rect x="247.8" y="743.4" width="41.3" height="41.3" fill="#a2d5f2"/><polygon points="289.1,743.4 289.1,784.6999999999999 247.8,784.6999999999999" fill="#40a8c4"/><rect x="289.1" y="743.4" width="41.3" height="41.3" fill="#40a8c4"/><polygon points="289.1,743.4 330.40000000000003,784.6999999999999 289.1,784.6999999999999" fill="#40a8c4"/><rect x="247.8" y="784.7" width="41.3" height="41.3" fill="#40a8c4"/><polygon points="289.1,784.7 289.1,826 247.8,826" fill="#40a8c4"/><rect x="289.1" y="784.7" width="41.3" height="41.3" fill="#40a8c4"/><polygon points="289.1,784.7 330.40000000000003,784.7 330.40000000000003,826" fill="#a2d5f2"/><rect x="330.4" y="743.4" width="82.6" height="82.6" fill="#40a8c4"/><polygon points="330.4,743.4 413,743.4 413,826" fill="#40a8c4"/><rect x="413" y="743.4" width="82.6" height="82.6" fill="#ffffff"/><rect x="413" y="743.4" width="41.3" height="41.3" fill="#a2d5f2"/><polygon points="413,743.4 454.3,784.6999999999999 413,784.6999999999999" fill="#a2d5f2"/><rect x="454.3" y="743.4" width="41.3" height="41.3" fill="#40a8c4"/><polygon points="454.3,743.4 495.6,743.4 495.6,784.6999999999999" fill="#a2d5f2"/><rect x="413" y="784.7" width="41.3" height="41.3" fill="#40a8c4"/><polygon points="413,784.7 454.3,784.7 454.3,826" fill="#40a8c4"/><rect x="454.3" y="784.7" width="41.3" height="41.3" fill="#40a8c4"/><polygon points="454.3,784.7 495.6,784.7 454.3,826" fill="#a2d5f2"/><rect x="495.59999999999997" y="743.4" width="82.6" height="82.6" fill="#ffffff"/><rect x="495.6" y="743.4" width="41.3" height="41.3" fill="#40a8c4"/><polygon points="495.6,743.4 536.9,784.6999999999999 495.6,784.6999999999999" fill="#40a8c4"/><rect x="536.9" y="743.4" width="41.3" height="41.3" fill="#a2d5f2"/><polygon points="578.1999999999999,743.4 578.1999999999999,784.6999999999999 536.9,784.6999999999999" fill="#a2d5f2"/><rect x="495.6" y="784.7" width="41.3" height="41.3" fill="#a2d5f2"/><polygon points="536.9,784.7 536.9,826 495.6,826" fill="#a2d5f2"/><rect x="536.9" y="784.7" width="41.3" height="41.3" fill="#a2d5f2"/><polygon points="578.1999999999999,784.7 578.1999999999999,826 536.9,826" fill="#a2d5f2"/><rect x="578.1999999999999" y="743.4" width="82.6" height="82.6" fill="#ffffff"/><rect x="578.2" y="743.4" width="41.3" height="41.3" fill="#a2d5f2"/><polygon points="578.2,743.4 619.5,784.6999999999999 578.2,784.6999999999999" fill="#40a8c4"/><rect x="619.5" y="743.4" width="41.3" height="41.3" fill="#a2d5f2"/><polygon points="619.5,743.4 660.8,743.4 619.5,784.6999999999999" fill="#a2d5f2"/><rect x="578.2" y="784.7" width="41.3" height="41.3" fill="#a2d5f2"/><polygon points="578.2,784.7 619.5,784.7 578.2,826" fill="#40a8c4"/><rect x="619.5" y="784.7" width="41.3" height="41.3" fill="#a2d5f2"/><polygon points="619.5,784.7 660.8,826 619.5,826" fill="#a2d5f2"/><rect x="660.8" y="743.4" width="82.6" height="82.6" fill="#ffffff"/><rect x="660.8" y="743.4" width="41.3" height="41.3" fill="#40a8c4"/><polygon points="660.8,743.4 702.0999999999999,743.4 702.0999999999999,784.6999999999999" fill="#40a8c4"/><rect x="702.1" y="743.4" width="41.3" height="41.3" fill="#40a8c4"/><polygon points="702.1,743.4 743.4,784.6999999999999 702.1,784.6999999999999" fill="#40a8c4"/><rect x="660.8" y="784.7" width="41.3" height="41.3" fill="#40a8c4"/><polygon points="660.8,784.7 702.0999999999999,784.7 660.8,826" fill="#40a8c4"/><rect x="702.1" y="784.7" width="41.3" height="41.3" fill="#40a8c4"/><polygon points="702.1,784.7 743.4,826 702.1,826" fill="#a2d5f2"/><rect x="743.4" y="743.4" width="82.6" height="82.6" fill="#ffffff"/><rect x="743.4" y="743.4" width="41.3" height="41.3" fill="#a2d5f2"/><polygon points="784.6999999999999,743.4 784.6999999999999,784.6999999999999 743.4,784.6999999999999" fill="#a2d5f2"/><rect x="784.7" y="743.4" width="41.3" height="41.3" fill="#a2d5f2"/><polygon points="784.7,743.4 826,743.4 826,784.6999999999999" fill="#a2d5f2"/><rect x="743.4" y="784.7" width="41.3" height="41.3" fill="#a2d5f2"/><polygon points="784.6999999999999,784.7 784.6999999999999,826 743.4,826" fill="#a2d5f2"/><rect x="784.7" y="784.7" width="41.3" height="41.3" fill="#40a8c4"/><polygon points="784.7,784.7 826,784.7 826,826" fill="#a2d5f2"/><rect x="826" y="743.4" width="82.6" height="82.6" fill="#ffffff"/><rect x="826" y="743.4" width="41.3" height="41.3" fill="#40a8c4"/><polygon points="826,743.4 867.3,784.6999999999999 826,784.6999999999999" fill="#a2d5f2"/><rect x="867.3" y="743.4" width="41.3" height="41.3" fill="#40a8c4"/><polygon points="867.3,743.4 908.5999999999999,743.4 908.5999999999999,784.6999999999999" fill="#a2d5f2"/><rect x="826" y="784.7" width="41.3" height="41.3" fill="#40a8c4"/><polygon points="826,784.7 867.3,826 826,826" fill="#a2d5f2"/><rect x="867.3" y="784.7" width="41.3" height="41.3" fill="#40a8c4"/><polygon points="867.3,784.7 908.5999999999999,826 867.3,826" fill="#40a8c4"/><rect x="908.5999999999999" y="743.4" width="82.6" height="82.6" fill="#ffffff"/><rect x="908.6" y="743.4" width="41.3" height="41.3" fill="#40a8c4"/><polygon points="908.6,743.4 949.9,784.6999999999999 908.6,784.6999999999999" fill="#40a8c4"/><rect x="949.9" y="743.4" width="41.3" height="41.3" fill="#40a8c4"/><polygon points="949.9,743.4 991.1999999999999,743.4 949.9,784.6999999999999" fill="#40a8c4"/><rect x="908.6" y="784.7" width="41.3" height="41.3" fill="#a2d5f2"/><polygon points="908.6,784.7 949.9,826 908.6,826" fill="#40a8c4"/><rect x="949.9" y="784.7" width="41.3" height="41.3" fill="#40a8c4"/><polygon points="949.9,784.7 991.1999999999999,784.7 991.1999999999999,826" fill="#40a8c4"/><rect x="991.1999999999999" y="743.4" width="82.6" height="82.6" fill="#ffffff"/><rect x="991.2" y="743.4" width="41.3" height="41.3" fill="#a2d5f2"/><polygon points="991.2,743.4 1032.5,784.6999999999999 991.2,784.6999999999999" fill="#40a8c4"/><rect x="1032.5" y="743.4" width="41.3" height="41.3" fill="#40a8c4"/><polygon points="1032.5,743.4 1073.8,743.4 1073.8,784.6999999999999" fill="#a2d5f2"/><rect x="991.2" y="784.7" width="41.3" height="41.3" fill="#a2d5f2"/><polygon points="991.2,784.7 1032.5,784.7 1032.5,826" fill="#40a8c4"/><rect x="1032.5" y="784.7" width="41.3" height="41.3" fill="#a2d5f2"/><polygon points="1073.8,784.7 1073.8,826 1032.5,826" fill="#40a8c4"/><rect x="1073.8" y="743.4" width="82.6" height="82.6" fill="#a2d5f2"/><polygon points="1073.8,743.4 1156.3999999999999,743.4 1073.8,826" fill="#40a8c4"/><rect x="1156.4" y="743.4" width="82.6" height="82.6" fill="#a2d5f2"/><polygon points="1156.4,743.4 1239,743.4 1156.4,826" fill="#a2d5f2"/><rect x="1239" y="743.4" width="82.6" height="82.6" fill="#ffffff"/><rect x="1239" y="743.4" width="41.3" height="41.3" fill="#40a8c4"/><polygon points="1239,743.4 1280.3,743.4 1239,784.6999999999999" fill="#40a8c4"/><rect x="1280.3" y="743.4" width="41.3" height="41.3" fill="#a2d5f2"/><polygon points="1280.3,743.4 1321.6,743.4 1321.6,784.6999999999999" fill="#a2d5f2"/><rect x="1239" y="784.7" width="41.3" height="41.3" fill="#a2d5f2"/><polygon points="1280.3,784.7 1280.3,826 1239,826" fill="#a2d5f2"/><rect x="1280.3" y="784.7" width="41.3" height="41.3" fill="#a2d5f2"/><polygon points="1321.6,784.7 1321.6,826 1280.3,826" fill="#40a8c4"/></g></svg>